<svg xmlns="http://www.w3.org/2000/svg" viewBox="0 0 88.15 66.2"><defs><style>.cls-1{fill:#000000;}</style></defs><g id="Layer_2" data-name="Layer 2"><g id="Capa_1" data-name="Capa 1"><path class="cls-1" d="M80.28,66.2H8.12V20.93a1.6,1.6,0,1,1,3.2,0V63H77.08v-42a1.6,1.6,0,1,1,3.2,0Z"/><path class="cls-1" d="M1.6,27a1.61,1.61,0,0,1-.77-3L44.2,0,87.32,23.88A1.62,1.62,0,0,1,88,26.06a1.59,1.59,0,0,1-2.17.64L44.2,3.68,2.37,26.84A1.67,1.67,0,0,1,1.6,27Z"/><path class="cls-1" d="M45.76,49.56v4.18H43.25V49.68a11.65,11.65,0,0,1-6.12-1.77l1-2.7a10.58,10.58,0,0,0,5.76,1.73c2.83,0,4.75-1.65,4.75-3.94S47,39.41,44.09,38.21c-4.08-1.61-6.6-3.46-6.6-7,0-3.34,2.36-5.88,6-6.48V20.7H46v3.91A10.67,10.67,0,0,1,51.2,26l-1,2.66a9.65,9.65,0,0,0-5-1.37c-3.07,0-4.23,1.85-4.23,3.46,0,2.1,1.48,3.14,5,4.59,4.12,1.69,6.2,3.78,6.2,7.36C52.08,45.89,49.88,48.87,45.76,49.56Z"/></g></g></svg>