<svg xmlns="http://www.w3.org/2000/svg" viewBox="0 0 89.55 58.32"><defs><style>.cls-1{fill:#000000;}</style></defs><g id="Layer_2" data-name="Layer 2"><g id="Capa_1" data-name="Capa 1"><path class="cls-1" d="M28.78,19.14a9.5,9.5,0,0,1-9.37-7.7A9.59,9.59,0,0,1,30.67.17a9.58,9.58,0,0,1-1.89,19Zm0-16.46A6.9,6.9,0,0,0,22,10.94,6.91,6.91,0,0,0,35.58,8.21h0a6.91,6.91,0,0,0-5.4-5.4A7.31,7.31,0,0,0,28.8,2.68Z"/><path class="cls-1" d="M71.71,58.32H55.64a2.1,2.1,0,0,1-2.09-2.09V42.37c-.41,2.88-.62,7.8-.68,9.78l0,.34A6.1,6.1,0,0,1,50,56.09a5.77,5.77,0,0,1-4.5.53,6,6,0,0,1-3.92-7.45c0-.21,1.32-10,2.31-13.22.89-3,4.78-10.93,4.94-11.27.06-.14,2.06-4.46,10.2-4.46h9.33c.11,0,7-.9,10.15,4.37l.05.09c.17.34,4,8.3,4.95,11.27,1,3.27,2.29,13,2.35,13.42a5.9,5.9,0,0,1-4,7.25,5.78,5.78,0,0,1-4.5-.53,6,6,0,0,1-2.83-3.6l-.06-.34c0-2-.27-6.89-.68-9.77V56.23A2.1,2.1,0,0,1,71.71,58.32ZM56.23,55.64H71.12V29.3l2.54,5.15a36.58,36.58,0,0,1,2.44,5.71c.75,2.73,1,10.39,1.05,11.73a3.44,3.44,0,0,0,1.54,1.87,3.08,3.08,0,0,0,2.42.29,3.29,3.29,0,0,0,2.12-4.12c-.06-.3-1.38-10.13-2.31-13.21-.8-2.64-4.42-10.13-4.76-10.81-2.22-3.68-7.59-3-7.64-3H59c-6.26,0-7.72,2.81-7.78,2.93s-4,8.13-4.8,10.89c-.92,3.08-2.25,12.91-2.26,13a3.36,3.36,0,0,0,2.07,4.32,3.07,3.07,0,0,0,2.42-.29,3.4,3.4,0,0,0,1.54-1.87c0-1.34.3-9,1-11.73a37.61,37.61,0,0,1,2.44-5.71l2.54-5.15Z"/><path class="cls-1" d="M63.65,19.14a9.5,9.5,0,0,1-9.37-7.7A9.59,9.59,0,0,1,65.54.17a9.52,9.52,0,0,1,7.53,7.54,9.57,9.57,0,0,1-9.42,11.43Zm0-16.46a6.9,6.9,0,0,0-6.76,8.26A6.9,6.9,0,1,0,70.44,8.21h0A6.9,6.9,0,0,0,65,2.81,7.14,7.14,0,0,0,63.67,2.68Z"/><path class="cls-1" d="M36.89,58.32H21.1a2.23,2.23,0,0,1-2.23-2.23V40.17c-.11.29-.18.52-.23.7-.6,2.18-.9,8.88-1,11.28l-.05.34a6.08,6.08,0,0,1-2.83,3.6,5.77,5.77,0,0,1-8-2.36,6.11,6.11,0,0,1-.43-4.56c0-.21,1.32-10,2.31-13.22.89-3,4.78-10.93,4.94-11.27,3.12-5.11,10.53-4.48,10.84-4.45H35.24l16.35.18a1.34,1.34,0,0,1,0,2.68h0L24.33,22.9c-.19,0-6.19-.51-8.37,3.07h0s-3.9,8-4.72,10.75C10.31,39.8,9,49.63,9,49.73a3.63,3.63,0,0,0,.19,2.76,3.08,3.08,0,0,0,4.29,1.27A3.36,3.36,0,0,0,15,51.89c0-1.34.3-9,1.06-11.73a42.66,42.66,0,0,1,3-6.75l2.54-5V55.64H36.44V29.28h8.75a1.34,1.34,0,1,1,0,2.68H39.12V56.09A2.23,2.23,0,0,1,36.89,58.32Z"/><path class="cls-1" d="M88.21,58.32H1.34a1.34,1.34,0,0,1,0-2.68H88.21a1.34,1.34,0,1,1,0,2.68Z"/></g></g></svg>