<svg xmlns="http://www.w3.org/2000/svg" viewBox="0 0 64.35 106.19"><defs><style>.cls-1{fill:#000000;}</style></defs><g id="Layer_2" data-name="Layer 2"><g id="Capa_1" data-name="Capa 1"><path class="cls-1" d="M24.67,0A11.55,11.55,0,0,0,13.12,11.55c0,6.38,11.55,25.5,11.55,25.5s11.55-19.12,11.55-25.5A11.55,11.55,0,0,0,24.67,0Zm0,17.18A5.33,5.33,0,1,1,30,11.85,5.32,5.32,0,0,1,24.67,17.18Z"/><path class="cls-1" d="M50.78,106.19l-1.73-2.87c-1.22-2-11.84-19.8-11.84-26.55a13.57,13.57,0,1,1,27.14,0c0,6.75-10.63,24.54-11.84,26.55Zm0-38.94a9.54,9.54,0,0,0-9.53,9.52c0,3.71,5.29,14.14,9.53,21.51C55,90.91,60.3,80.48,60.3,76.77A9.53,9.53,0,0,0,50.78,67.25Zm0,17.18a7.36,7.36,0,1,1,7.35-7.35A7.36,7.36,0,0,1,50.78,84.43Zm0-10.67a3.32,3.32,0,1,0,3.31,3.32A3.32,3.32,0,0,0,50.78,73.76Z"/><path class="cls-1" d="M30.06,39.07H24.67a2,2,0,0,1,0-4h5.39a2,2,0,1,1,0,4Z"/><path class="cls-1" d="M47.52,39.07H38.79a2,2,0,1,1,0-4h8.73a2,2,0,1,1,0,4Z"/><path class="cls-1" d="M61.65,44.46a2,2,0,0,1-2-2V39.07H56.26a2,2,0,1,1,0-4h7.41v7.41A2,2,0,0,1,61.65,44.46Z"/><path class="cls-1" d="M63.67,54.2H56.26a2,2,0,1,1,0-4h3.37V46.79a2,2,0,0,1,4,0Z"/><path class="cls-1" d="M46.49,54.2H36.72a2,2,0,1,1,0-4h9.77a2,2,0,0,1,0,4ZM27,54.2H17.19a2,2,0,1,1,0-4H27a2,2,0,0,1,0,4Z"/><path class="cls-1" d="M2,59.59a2,2,0,0,1-2-2V50.16H7.41a2,2,0,1,1,0,4H4v3.37A2,2,0,0,1,2,59.59Z"/><path class="cls-1" d="M2,86a2,2,0,0,1-2-2V70.75a2,2,0,0,1,4,0V83.94A2,2,0,0,1,2,86Z"/><path class="cls-1" d="M7.41,104.53H0V97.12a2,2,0,1,1,4,0v3.37H7.41a2,2,0,1,1,0,4Z"/><path class="cls-1" d="M20.83,104.53a2,2,0,1,1,0-4l13.4,0h0a2,2,0,0,1,0,4Z"/><path class="cls-1" d="M47.64,104.47a2,2,0,0,1,0-4H53a2,2,0,1,1,0,4l-5.39,0Z"/></g></g></svg>