<svg xmlns="http://www.w3.org/2000/svg" viewBox="0 0 201.71 135.8"><defs><style>.cls-1{fill:#fff;}.cls-2{fill:#585b5c;}</style></defs><g id="Layer_2" data-name="Layer 2"><g id="Capa_1" data-name="Capa 1"><path class="cls-1" d="M0,39.72,45.25,62.11v55.6s59,39.35,113.7,0V62.28l37.5-19.39L102.66,1.19Z"/><path class="cls-2" d="M102.1,135.8c-26.92,0-57.09-17-57.39-17.13l-.55-.32V61l2.78.09,55.17,24L160,60.63v57.71l-.53.31C159.22,118.83,130.35,135.8,102.1,135.8ZM46.35,117.06c4.2,2.29,31.41,16.54,55.75,16.54,25.56,0,51.71-14.23,55.75-16.52V63.94L102.1,87.5,46.35,63.24Z"/><path class="cls-2" d="M200.68,105.64H189.81V85.19a5.46,5.46,0,0,1,3.14-4.9V45.62l-90.86,41.9-.46-.22-99-47.22L102.67,0l99,41.86-4.17,1.76V80.29a5.46,5.46,0,0,1,3.14,4.9Zm-8.67-2.2h6.47V85.19a3.24,3.24,0,0,0-2.34-3.09l-.79-.23V42.16l.72-.3L102.65,2.37,8.05,40.25l94.06,44.84,93-42.9V81.87l-.79.23A3.24,3.24,0,0,0,192,85.19Z"/></g></g></svg>