<svg xmlns="http://www.w3.org/2000/svg" viewBox="0 0 181.68 154.37"><defs><style>.cls-1{fill:#fff;}.cls-2{fill:#585b5c;}</style></defs><g id="Layer_2" data-name="Layer 2"><g id="Capa_1" data-name="Capa 1"><polygon class="cls-1" points="22.08 153.32 22.08 84.77 13.84 91.79 1.58 81.06 92 1.4 180.16 81.02 169.16 91.86 160.04 85.78 160.89 153.32 22.08 153.32"/><path class="cls-2" d="M169.22,93.27l-.73-.61L90.87,27.56l-77,65.6L0,81.06l.89-.79L92,0l.69.62,89,80.37ZM90.87,24.83l78.24,65.63,9.54-9.4L92,2.79,3.16,81.05l10.69,9.36Z"/><path class="cls-2" d="M161.93,154.37H21V84.77a1,1,0,1,1,2.08,0v67.51H159.85V84.92a1,1,0,0,1,2.08,0Z"/><path class="cls-2" d="M72.05,154.37H40.78V93H72.05Zm-29.19-2.09H70V95.06H42.86Z"/><path class="cls-2" d="M143.8,137h-56V90.13h56Zm-53.94-2.09h51.85V92.22H89.86Z"/><path class="cls-2" d="M176.78,154.37H5.12a1,1,0,0,1,0-2.09H176.78a1,1,0,0,1,0,2.09Z"/></g></g></svg>