<?xml version="1.0" encoding="UTF-8" standalone="no"?>
<svg
   xmlns:dc="http://purl.org/dc/elements/1.1/"
   xmlns:cc="http://creativecommons.org/ns#"
   xmlns:rdf="http://www.w3.org/1999/02/22-rdf-syntax-ns#"
   xmlns:svg="http://www.w3.org/2000/svg"
   xmlns="http://www.w3.org/2000/svg"
   xmlns:sodipodi="http://sodipodi.sourceforge.net/DTD/sodipodi-0.dtd"
   xmlns:inkscape="http://www.inkscape.org/namespaces/inkscape"
   viewBox="0 0 84.2 79.6"
   version="1.1"
   id="svg100"
   sodipodi:docname="apoyoseconomicosinstitucionales.svg"
   inkscape:version="1.0.2-2 (e86c870879, 2021-01-15)">
  <metadata
     id="metadata104">
    <rdf:RDF>
      <cc:Work
         rdf:about="">
        <dc:format>image/svg+xml</dc:format>
        <dc:type
           rdf:resource="http://purl.org/dc/dcmitype/StillImage" />
      </cc:Work>
    </rdf:RDF>
  </metadata>
  <sodipodi:namedview
     pagecolor="#ffffff"
     bordercolor="#666666"
     borderopacity="1"
     objecttolerance="10"
     gridtolerance="10"
     guidetolerance="10"
     inkscape:pageopacity="0"
     inkscape:pageshadow="2"
     inkscape:window-width="1920"
     inkscape:window-height="1017"
     id="namedview102"
     showgrid="false"
     inkscape:zoom="22.627417"
     inkscape:cx="34.365888"
     inkscape:cy="43.509049"
     inkscape:window-x="-8"
     inkscape:window-y="-8"
     inkscape:window-maximized="1"
     inkscape:current-layer="Capa_1" />
  <defs
     id="defs60">
    <inkscape:path-effect
       effect="powerclip"
       id="path-effect1102"
       is_visible="true"
       lpeversion="1"
       inverse="true"
       flatten="false"
       hide_clip="false"
       message="Use fill-rule evenodd on &lt;b&gt;fill and stroke&lt;/b&gt; dialog if no flatten result after convert clip to paths." />
    <inkscape:path-effect
       effect="powerclip"
       id="path-effect1088"
       is_visible="true"
       lpeversion="1"
       inverse="true"
       flatten="false"
       hide_clip="false"
       message="Use fill-rule evenodd on &lt;b&gt;fill and stroke&lt;/b&gt; dialog if no flatten result after convert clip to paths." />
    <style
       id="style58">.cls-1{fill:#fff;}.cls-2{fill:#000000;}</style>
    <clipPath
       clipPathUnits="userSpaceOnUse"
       id="clipPath1084">
      <rect
         style="display:none;fill:#000000;fill-opacity:1;stroke-width:0;stroke-miterlimit:4;stroke-dasharray:none"
         id="rect1086"
         width="71.125"
         height="35.75"
         x="11.375"
         y="41.875"
         d="M 11.375,41.875 H 82.5 v 35.75 H 11.375 Z" />
      <path
         id="lpe_path-effect1088"
         style="fill:#000000;fill-opacity:1;stroke-width:0;stroke-miterlimit:4;stroke-dasharray:none"
         class="powerclip"
         d="M -5,-5 H 89.2 V 72.92 H -5 Z m 16.375,46.875 v 35.75 H 82.5 v -35.75 z" />
    </clipPath>
    <clipPath
       clipPathUnits="userSpaceOnUse"
       id="clipPath1098">
      <rect
         style="display:none;fill:#000000;fill-opacity:1;stroke-width:0;stroke-miterlimit:4;stroke-dasharray:none"
         id="rect1100"
         width="70.875"
         height="36.625"
         x="11.375"
         y="41.875"
         d="M 11.375,41.875 H 82.25 V 78.5 H 11.375 Z" />
      <path
         id="lpe_path-effect1102"
         style="fill:#000000;fill-opacity:1;stroke-width:0;stroke-miterlimit:4;stroke-dasharray:none"
         class="powerclip"
         d="m 21.45757,13.340088 h 41.245955 v 41.24 H 21.45757 Z M 11.375,41.875 V 78.5 H 82.25 V 41.875 Z" />
    </clipPath>
  </defs>
  <g
     id="Layer_2"
     data-name="Layer 2">
    <g
       id="Capa_1"
       data-name="Capa 1">
      <path
         class="cls-2"
         d="M 17.17,67.92 0,32.49 67,0 84.2,35.43 Z M 3.67,33.76 18.45,64.25 80.53,34.15 65.75,3.67 Z"
         id="path64"
         clip-path="url(#clipPath1084)"
         inkscape:path-effect="#path-effect1088"
         inkscape:original-d="M17.17,67.92,0,32.49,67,0,84.2,35.43ZM3.67,33.76,18.45,64.25l62.08-30.1L65.75,3.67Z" />
      <path
         class="cls-2"
         d="m 42.13,49.58 a 15.62,15.62 0 1 1 14,-22.44 v 0 a 15.61,15.61 0 0 1 -14,22.44 z M 42.08,21.08 A 12.88,12.88 0 0 0 30.51,39.58 12.880703,12.880703 0 1 0 53.69,28.34 v 0 A 12.89,12.89 0 0 0 42.08,21.08 Z"
         id="path68"
         clip-path="url(#clipPath1098)"
         inkscape:original-d="M42.13,49.58a15.62,15.62,0,1,1,14-22.44h0a15.61,15.61,0,0,1-14,22.44Zm-.05-28.5a12.88,12.88,0,0,0-11.57,18.5A12.88,12.88,0,1,0,53.69,28.34h0A12.89,12.89,0,0,0,42.08,21.08Z"
         inkscape:path-effect="#path-effect1102" />
      <path
         class="cls-2"
         d="M63.85,27.29a3.87,3.87,0,1,1,3.48-5.56h0a3.86,3.86,0,0,1-3.48,5.56Zm0-5a1.21,1.21,0,0,0-.49.11,1.13,1.13,0,0,0-.52,1.51,1.12,1.12,0,0,0,1.51.52,1.13,1.13,0,0,0-.5-2.14Z"
         id="path76" />
      <path
         class="cls-2"
         d="M44.69,42.06l-.88-1.83a5.83,5.83,0,0,1-3.16.54l-.16-1.42a5.29,5.29,0,0,0,3-.49A2.12,2.12,0,0,0,44.78,36c-.49-1-1.49-1.27-3.1-1.16-2.2.17-3.74-.11-4.51-1.69a3.31,3.31,0,0,1,1.33-4.25l-.89-1.83,1.12-.54.85,1.76a5.45,5.45,0,0,1,2.67-.51l.13,1.42a4.74,4.74,0,0,0-2.59.49c-1.39.67-1.52,1.76-1.16,2.49.45.94,1.35,1.09,3.25,1,2.23-.14,3.63.35,4.41,2a3.49,3.49,0,0,1-1.37,4.47l.92,1.89Z"
         id="path78" />
      <path
         class="cls-2"
         d="M84,79.6H9.53V40.23H84ZM12.28,76.86h69V43h-69Z"
         id="path82" />
      <path
         class="cls-2"
         d="M46.77,75.55A15.63,15.63,0,1,1,62.4,59.92,15.64,15.64,0,0,1,46.77,75.55Zm0-28.51A12.88,12.88,0,1,0,59.65,59.92,12.9,12.9,0,0,0,46.77,47Z"
         id="path86" />
      <path
         class="cls-2"
         d="M22.33,63.79a3.88,3.88,0,1,1,3.87-3.87A3.88,3.88,0,0,1,22.33,63.79Zm0-5a1.13,1.13,0,1,0,1.12,1.13A1.13,1.13,0,0,0,22.33,58.79Z"
         id="path90" />
      <path
         class="cls-2"
         d="M70.94,63.79a3.88,3.88,0,1,1,3.87-3.87A3.88,3.88,0,0,1,70.94,63.79Zm0-5a1.13,1.13,0,1,0,1.12,1.13A1.14,1.14,0,0,0,70.94,58.79Z"
         id="path94" />
      <path
         class="cls-2"
         d="M45.57,68.34v-2a5.93,5.93,0,0,1-3.08-.89L43,64.07a5.38,5.38,0,0,0,2.9.87c1.43,0,2.39-.83,2.39-2s-.78-1.79-2.27-2.4c-2.06-.8-3.33-1.73-3.33-3.48a3.3,3.3,0,0,1,3-3.24v-2H47v2a5.37,5.37,0,0,1,2.61.71l-.5,1.33a4.87,4.87,0,0,0-2.54-.69c-1.55,0-2.13.93-2.13,1.74,0,1,.74,1.57,2.49,2.29C49,60,50,61,50,62.82a3.52,3.52,0,0,1-3.19,3.43v2.09Z"
         id="path96" />
    </g>
  </g>
</svg>
