<svg xmlns="http://www.w3.org/2000/svg" viewBox="0 0 120.07 78.31"><defs><style>.cls-1{fill:#000000;}</style></defs><g id="Layer_2" data-name="Layer 2"><g id="Capa_1" data-name="Capa 1"><path class="cls-1" d="M112.82,78.31H6.58V0H112.82Zm-103.21-3H109.79V3H9.61Z"/><path class="cls-1" d="M36,70.72H20.89V47.34H36Zm-12.08-3h9V50.37h-9Z"/><path class="cls-1" d="M51.74,70.72H36.64V42.51h15.1Zm-12.07-3h9V45.54h-9Z"/><path class="cls-1" d="M67.49,70.72H52.39V36.65h15.1Zm-12.07-3h9v-28h-9Z"/><path class="cls-1" d="M83.24,70.72H68.14V30.44h15.1Zm-12.07-3h9V33.47h-9Z"/><path class="cls-1" d="M99,70.72H83.88V26H99Zm-12.08-3h9V29h-9Z"/><path class="cls-1" d="M15.86,39.68a1.51,1.51,0,0,1-.49-3l76.14-26a1.52,1.52,0,0,1,1,2.87l-76.15,26A1.61,1.61,0,0,1,15.86,39.68Z"/><path class="cls-1" d="M87.51,19.24a1.48,1.48,0,0,1-1-.34,1.51,1.51,0,0,1-.23-2.13l2.81-3.44-4.53-.66a1.52,1.52,0,0,1,.43-3l9.82,1.42-6.17,7.59A1.52,1.52,0,0,1,87.51,19.24Z"/><path class="cls-1" d="M118.55,3H1.52a1.52,1.52,0,1,1,0-3h117a1.52,1.52,0,1,1,0,3Z"/></g></g></svg>