<svg xmlns="http://www.w3.org/2000/svg" viewBox="0 0 89.17 70.32"><defs><style>.cls-1{fill:#000000;}</style></defs><g id="Layer_2" data-name="Layer 2"><g id="Capa_1" data-name="Capa 1"><path class="cls-1" d="M67.14,70.32H15a15,15,0,0,1-15-15V25.84a15,15,0,0,1,15-15H67.14a15,15,0,0,1,15,15V55.3A15,15,0,0,1,67.14,70.32ZM15,13.69A12.16,12.16,0,0,0,2.88,25.84V55.3A12.16,12.16,0,0,0,15,67.44H67.14A12.16,12.16,0,0,0,79.28,55.3V25.84A12.16,12.16,0,0,0,67.14,13.69Z"/><path class="cls-1" d="M41.08,51.3a17.85,17.85,0,0,1-5.95-1L1,38.15a1.44,1.44,0,0,1,1-2.72L36.09,47.57a15,15,0,0,0,10,0L80.24,35.43a1.44,1.44,0,0,1,1,2.72L47,50.28A17.71,17.71,0,0,1,41.08,51.3Z"/><path class="cls-1" d="M41.08,45.44a3.85,3.85,0,1,1,3.84-3.84A3.84,3.84,0,0,1,41.08,45.44Zm0-4.81a1,1,0,0,0-1,1c0,1,1.92,1.06,1.92,0A1,1,0,0,0,41.08,40.63Z"/><path class="cls-1" d="M53.09,13.18a1.45,1.45,0,0,1-1.44-1.44c0-4.89-4.74-8.86-10.57-8.86s-10.57,4-10.57,8.86a1.44,1.44,0,1,1-2.88,0C27.63,5.27,33.66,0,41.08,0S54.53,5.27,54.53,11.74A1.44,1.44,0,0,1,53.09,13.18Z"/><path class="cls-1" d="M75.43,9.65A1.44,1.44,0,0,1,74,8.21V3a1.44,1.44,0,0,1,2.88,0V8.21A1.43,1.43,0,0,1,75.43,9.65Z"/><path class="cls-1" d="M80,12.66a1.44,1.44,0,0,1-.9-2.56l4.14-3.32A1.44,1.44,0,1,1,85.08,9l-4.14,3.32A1.42,1.42,0,0,1,80,12.66Z"/><path class="cls-1" d="M87.73,17.42H84.17a1.44,1.44,0,1,1,0-2.88h3.56a1.44,1.44,0,0,1,0,2.88Z"/></g></g></svg>