<svg xmlns="http://www.w3.org/2000/svg" viewBox="0 0 82.41 69.41"><defs><style>.cls-1{fill:#000000;}</style></defs><g id="Layer_2" data-name="Layer 2"><g id="Capa_1" data-name="Capa 1"><path class="cls-1" d="M57.93,69.41H7A7,7,0,0,1,.48,59.85a1.27,1.27,0,0,1-.48-1V8.7A8.71,8.71,0,0,1,8.7,0H59.19V57.64L7,57.92a4.48,4.48,0,0,0,0,9H57.93a1.27,1.27,0,0,1,0,2.53ZM8.7,2.53A6.17,6.17,0,0,0,2.53,8.7V57A6.94,6.94,0,0,1,7,55.39l49.69-.27V2.53Z"/><path class="cls-1" d="M59.19,63.53H10.86a1.27,1.27,0,0,1,0-2.53h45.8V56.38a1.27,1.27,0,0,1,2.53,0Z"/><path class="cls-1" d="M10.86,49.9A1.25,1.25,0,0,1,9.6,48.64V11.79a1.26,1.26,0,0,1,2.52,0V48.64A1.25,1.25,0,0,1,10.86,49.9Z"/><path class="cls-1" d="M78.5,65.18H70.8a3.93,3.93,0,0,1-3.92-3.92V15.79L74.65,2.35l7.76,13.44V61.26A3.92,3.92,0,0,1,78.5,65.18ZM69.41,16.46v44.8a1.39,1.39,0,0,0,1.39,1.39h7.7a1.39,1.39,0,0,0,1.39-1.39V16.46L74.65,7.4Z"/><path class="cls-1" d="M81.15,17.39h-13a1.27,1.27,0,0,1,0-2.53h13a1.27,1.27,0,0,1,0,2.53Z"/><path class="cls-1" d="M81.15,55.68h-13a1.26,1.26,0,0,1,0-2.52h13a1.26,1.26,0,0,1,0,2.52Z"/><path class="cls-1" d="M74.91,55.68a1.27,1.27,0,0,1-1.27-1.25l-.25-38.3a1.26,1.26,0,0,1,1.25-1.27,1.33,1.33,0,0,1,1.27,1.26l.26,38.29a1.26,1.26,0,0,1-1.25,1.27Z"/></g></g></svg>