<svg xmlns="http://www.w3.org/2000/svg" viewBox="0 0 76.44 76.44"><defs><style>.cls-1{fill:#000000;}</style></defs><g id="Layer_2" data-name="Layer 2"><g id="Capa_1" data-name="Capa 1"><path class="cls-1" d="M55.66,56.31H20.78V54.48A15.87,15.87,0,0,1,36.64,38.62H39.8A15.88,15.88,0,0,1,55.66,54.48Zm-32-2.87h29A13,13,0,0,0,39.8,41.5H36.64A13,13,0,0,0,23.7,53.44Z"/><path class="cls-1" d="M38.22,39.55a9.72,9.72,0,1,1,9.71-9.71A9.73,9.73,0,0,1,38.22,39.55Zm0-16.55a6.84,6.84,0,1,0,6.84,6.84A6.85,6.85,0,0,0,38.22,23Z"/><path class="cls-1" d="M38.22,70.32a32.1,32.1,0,1,1,32.1-32.1A32.14,32.14,0,0,1,38.22,70.32ZM38.22,9A29.22,29.22,0,1,0,67.44,38.22,29.26,29.26,0,0,0,38.22,9Z"/><path class="cls-1" d="M38.22,76.44A38.22,38.22,0,1,1,76.44,38.22,38.27,38.27,0,0,1,38.22,76.44Zm0-73.56A35.34,35.34,0,1,0,73.56,38.22,35.38,35.38,0,0,0,38.22,2.88Z"/></g></g></svg>