<svg xmlns="http://www.w3.org/2000/svg" viewBox="0 0 83.31 74.99"><defs><style>.cls-1{fill:#000000;}</style></defs><g id="Layer_2" data-name="Layer 2"><g id="Capa_1" data-name="Capa 1"><path class="cls-1" d="M41.66,75A33.34,33.34,0,1,1,75,41.65,33.38,33.38,0,0,1,41.66,75Zm0-63.21A29.88,29.88,0,1,0,71.53,41.65,29.92,29.92,0,0,0,41.66,11.78Z"/><path class="cls-1" d="M81.58,43.39a1.73,1.73,0,0,1-1.73-1.74,38.2,38.2,0,0,0-76.39,0,1.73,1.73,0,1,1-3.46,0,41.66,41.66,0,0,1,83.31,0A1.74,1.74,0,0,1,81.58,43.39Z"/><path class="cls-1" d="M55,43.39H39.16V18.44a1.74,1.74,0,0,1,3.47,0V39.92H55a1.74,1.74,0,0,1,0,3.47Z"/></g></g></svg>