<svg xmlns="http://www.w3.org/2000/svg" viewBox="0 0 85.79 85.79"><defs><style>.cls-1{fill:#000000;}</style></defs><g id="Layer_2" data-name="Layer 2"><g id="Capa_1" data-name="Capa 1"><path class="cls-1" d="M42.88,72.65,16.71,50.72A17.89,17.89,0,1,1,41.52,24.93l1.66,1.61.68-.7a17.9,17.9,0,0,1,25.71,24.9Zm-13.8-49.2a14.33,14.33,0,0,0-10,24.63L42.91,68l24.25-19.9A14.34,14.34,0,0,0,46.42,28.31l-3.15,3.25-4.22-4.08A14.3,14.3,0,0,0,29.08,23.45Z"/><path class="cls-1" d="M42.89,85.79A42.9,42.9,0,1,1,85.79,42.9,42.94,42.94,0,0,1,42.89,85.79Zm0-82.24A39.35,39.35,0,1,0,82.24,42.9,39.39,39.39,0,0,0,42.89,3.55Z"/></g></g></svg>