<svg xmlns="http://www.w3.org/2000/svg" viewBox="0 0 118.02 86.81"><defs><style>.cls-1{fill:#000000;}</style></defs><g id="Layer_2" data-name="Layer 2"><g id="Capa_1" data-name="Capa 1"><path class="cls-1" d="M63.5,62,53.14,27.26,46.26,50.18l-6-10.63H1.89a1.89,1.89,0,1,1,0-3.78H42.52l2.68,4.78,7.95-26.48L63.79,49.72,70.6,30.19,77.06,41l39.05-.29A1.74,1.74,0,0,1,118,42.57a1.89,1.89,0,0,1-1.88,1.91l-41.22.31L71.5,39.07Z"/><path class="cls-1" d="M59,86.81,15.37,50.25a29.2,29.2,0,1,1,40.54-42l3.62,3.5,1.93-2A29.2,29.2,0,1,1,103.4,50.37Zm-23.4-83A25.41,25.41,0,0,0,17.9,47.44L59,81.9l41.82-34.3A25.43,25.43,0,0,0,64.17,12.36l-4.56,4.71-6.33-6.14A25.36,25.36,0,0,0,35.59,3.78Z"/></g></g></svg>