<svg xmlns="http://www.w3.org/2000/svg" viewBox="0 0 542.98 353.86"><defs><style>.cls-1{fill:#b0b3b2;}.cls-2{font-size:13.83px;fill:#e81d27;font-family:Roboto-Medium, Roboto;font-weight:500;letter-spacing:0.2em;}.cls-3{letter-spacing:0.19em;}.cls-4,.cls-5{fill:none;stroke-miterlimit:10;}.cls-4{stroke:#e81d27;stroke-linecap:round;}.cls-5{stroke:#585b5c;stroke-width:0.75px;}</style></defs><g id="Layer_2" data-name="Layer 2"><g id="Capa_1" data-name="Capa 1"><rect class="cls-1" x="57.6" y="31.1" width="88.88" height="96.69"/><rect class="cls-1" x="167.91" y="67.31" width="275.49" height="95"/><rect class="cls-1" x="167.91" y="31.1" width="164.96" height="26.34"/><rect class="cls-1" x="248.96" y="206.8" width="115.8" height="109.93" rx="6.07"/><rect class="cls-1" x="378.78" y="206.8" width="115.8" height="109.93" rx="6.07"/><rect class="cls-1" x="117.34" y="206.8" width="115.8" height="109.93" rx="6.07"/><path class="cls-1" d="M499.77,194.1,71,194.35a4.93,4.93,0,0,0-4.93,4.93v15.88H63.85a17.59,17.59,0,0,0-17.6,17.59v72.77a17.6,17.6,0,0,0,17.6,17.6h9.36a17.6,17.6,0,0,0,17.6-17.6V232.75a17.59,17.59,0,0,0-17.6-17.59H71V200.21a.93.93,0,0,1,.93-.93L499.77,199a.94.94,0,0,0,.93-.94V195A.94.94,0,0,0,499.77,194.1Z"/><path class="cls-1" d="M43.63,235.41V223H31.25A12.39,12.39,0,0,0,43.63,235.41Z"/><path class="cls-1" d="M43.63,267.61V255.22H31.25A12.39,12.39,0,0,0,43.63,267.61Z"/><path class="cls-1" d="M43.63,299.82V287.43H31.25A12.39,12.39,0,0,0,43.63,299.82Z"/><path class="cls-1" d="M93.43,235.41A12.39,12.39,0,0,0,105.82,223H93.43Z"/><path class="cls-1" d="M93.43,267.61a12.39,12.39,0,0,0,12.39-12.39H93.43Z"/><path class="cls-1" d="M93.43,299.82a12.39,12.39,0,0,0,12.39-12.39H93.43Z"/><rect class="cls-1" x="472.24" y="13.6" width="40.23" height="40.23" rx="4.5"/><text class="cls-2" transform="translate(360.28 39.7) scale(0.96 1)">DIMENSIÓN</text><text class="cls-2" transform="translate(19.17 153.63) scale(0.96 1)">TEMÁTICA</text><text class="cls-2" transform="translate(167.91 333.02) scale(0.96 1)">DESCRIP<tspan class="cls-3" x="74.97" y="0">T</tspan><tspan x="85.94" y="0">ORES Y RIESGOS</tspan></text><line class="cls-4" x1="360.28" y1="44.27" x2="492.36" y2="44.27"/><polyline class="cls-4" points="37.44 130.47 37.44 22.61 341.5 22.61 341.5 60.13 458.86 60.13 458.86 168.46 37.44 168.46 37.44 160.68"/><polyline class="cls-4" points="160.29 327.59 19.16 327.59 19.16 186.07 512.47 186.07 512.47 327.59 395 327.59"/><rect class="cls-5" x="0.38" y="0.38" width="542.23" height="353.11"/></g></g></svg>