<svg
	xmlns="http://www.w3.org/2000/svg" viewBox="0 0 151.07 385.29">
	<defs>
		<style>.cls-1{fill:#fff;}.cls-2,.cls-4{fill:none;stroke:#585b5c;stroke-miterlimit:10;}.cls-3{fill:#ef3a2d;}.cls-4{stroke-linecap:round;}.cls-5{fill:#f3eb3b;}.cls-6{fill:#94b33c;}</style>
	</defs>
	<title>semaforo-poste</title>
	<g id="Layer_2" data-name="Layer 2">
		<g id="Layer_1-2" data-name="Layer 1">
			<polygon class="cls-1" points="71.46 134.61 80.58 134.61 79.6 384.79 70.48 384.79 71.46 134.61"/>
			<polygon class="cls-2" points="71.46 134.61 80.58 134.61 79.6 384.79 70.48 384.79 71.46 134.61"/>
			<path class="cls-1" d="M100.7,217.75H50.36A19.66,19.66,0,0,1,30.7,198.09V20.16A19.66,19.66,0,0,1,50.36.5H100.7a19.66,19.66,0,0,1,19.66,19.66V198.09a19.66,19.66,0,0,1-19.66,19.66"/>
			<rect class="cls-2" x="30.7" y="0.5" width="89.66" height="217.25" rx="19.66"/>
		    <a class="semaforo-link" id="semaforo-red" href="#red"><path class="cls-3" d="M100.72,45.08A25.19,25.19,0,1,1,75.53,19.9a25.18,25.18,0,0,1,25.19,25.18"/></a>
			<path class="cls-4" d="M103,41.51c0-13.91-12.29-25.19-27.45-25.19S48.08,27.6,48.08,41.51"/>
			<a class="semaforo-link" id="semaforo-yellow" href="#yellow"><path class="cls-5" d="M100.72,109.88A25.19,25.19,0,1,1,75.53,84.7a25.19,25.19,0,0,1,25.19,25.18"/></a>
			<path class="cls-4" d="M103,106.31c0-13.91-12.29-25.18-27.45-25.18S48.08,92.4,48.08,106.31"/>
			<a class="semaforo-link" id="semaforo-green" href="#green"><path class="cls-6" d="M100.72,174.69A25.19,25.19,0,1,1,75.53,149.5a25.18,25.18,0,0,1,25.19,25.19"/></a>
			<path class="cls-4" d="M103,171.12c0-13.91-12.29-25.19-27.45-25.19s-27.45,11.28-27.45,25.19"/>
			<path class="cls-1" d="M25.43,41.25H15.21A14.71,14.71,0,0,1,.5,26.54V16.32H25.43Z"/>
			<path class="cls-2" d="M25.43,41.25H15.21A14.71,14.71,0,0,1,.5,26.54V16.32H25.43Z"/>
			<path class="cls-1" d="M25.43,106.06H15.21A14.72,14.72,0,0,1,.5,91.35V81.13H25.43Z"/>
			<path class="cls-2" d="M25.43,106.06H15.21A14.72,14.72,0,0,1,.5,91.35V81.13H25.43Z"/>
			<path class="cls-1" d="M25.43,170.86H15.21A14.71,14.71,0,0,1,.5,156.15V145.93H25.43Z"/>
			<path class="cls-2" d="M25.43,170.86H15.21A14.71,14.71,0,0,1,.5,156.15V145.93H25.43Z"/>
			<path class="cls-1" d="M125.64,41.25h10.21a14.71,14.71,0,0,0,14.72-14.71V16.32H125.64Z"/>
			<path class="cls-2" d="M125.64,41.25h10.21a14.71,14.71,0,0,0,14.72-14.71V16.32H125.64Z"/>
			<path class="cls-1" d="M125.64,106.06h10.21a14.72,14.72,0,0,0,14.72-14.71V81.13H125.64Z"/>
			<path class="cls-2" d="M125.64,106.06h10.21a14.72,14.72,0,0,0,14.72-14.71V81.13H125.64Z"/>
			<path class="cls-1" d="M125.64,170.86h10.21a14.71,14.71,0,0,0,14.72-14.71V145.93H125.64Z"/>
			<path class="cls-2" d="M125.64,170.86h10.21a14.71,14.71,0,0,0,14.72-14.71V145.93H125.64Z"/>
		</g>
	</g>
</svg>