<svg xmlns="http://www.w3.org/2000/svg" viewBox="0 0 90.51 143.49"><defs><style>.cls-1{fill:#fff;}.cls-2{fill:#585b5c;}</style></defs><g id="Layer_2" data-name="Layer 2"><g id="Capa_1" data-name="Capa 1"><path class="cls-1" d="M17.61,1.07l7.55,35.8,1.12,9.79S-2.35,67.92.78,102.6s40.05,39.72,40.05,39.72,24.89,3.08,40.27-18.18,4.76-46.71,4.76-46.71S77.75,55.05,68,49.18s-1.12-7-1.12-7v-7.3L76.07,7.78,56.1,11,45.79,9.85Z"/><path class="cls-2" d="M45.25,143.49A45.31,45.31,0,0,1,0,98.23C0,80.88,10.72,55,24.59,47.43a14.29,14.29,0,0,0,.84-6.13L16.89,1.59A1.31,1.31,0,0,1,17.3.33,1.3,1.3,0,0,1,18.59.07l25,8.33A35.5,35.5,0,0,0,61,9.66l14.44-2.6a1.13,1.13,0,0,1,1.08.38,1.16,1.16,0,0,1,.24,1.14L68.65,33.33c-3.26,5.09-1.79,12.56-1.42,14.15,13.94,8.19,23.28,32.76,23.28,50.75A45.31,45.31,0,0,1,45.25,143.49ZM18.5,1.68,27,41.05a15.35,15.35,0,0,1-1.06,7.24l-.1.25-.24.13c-13.53,7.19-24,32.54-24,49.56a43.7,43.7,0,1,0,87.39,0c0-17.68-9.15-41.81-22.79-49.57l-.28-.16-.08-.31c-.1-.38-2.46-9.34,1.49-15.61L75.05,8.71,61.24,11.19A37,37,0,0,1,43.09,9.88ZM75.71,8.59h0Z"/><path class="cls-2" d="M47.27,110.87v5.81H43.75V111a16.36,16.36,0,0,1-8.55-2.46l1.34-3.75a14.91,14.91,0,0,0,8.05,2.41c4,0,6.65-2.3,6.65-5.48s-2.18-5-6.32-6.65c-5.7-2.24-9.22-4.81-9.22-9.67,0-4.64,3.3-8.16,8.44-9V70.8h3.47v5.42a14.87,14.87,0,0,1,7.26,2l-1.4,3.69a13.39,13.39,0,0,0-7-1.9c-4.3,0-5.92,2.57-5.92,4.8,0,2.91,2.07,4.36,6.93,6.37,5.75,2.35,8.66,5.26,8.66,10.23C56.1,105.78,53,109.92,47.27,110.87Z"/><path class="cls-1" d="M22.78,37.24h46c1.77,0,3.2,2.23,3.2,5s-1.43,5-3.2,5h-46c-1.77,0-3.21-2.23-3.21-5S21,37.24,22.78,37.24Z"/><path class="cls-2" d="M68.8,48h-46c-2.24,0-4-2.52-4-5.74s1.74-5.75,4-5.75h46c2.23,0,4,2.53,4,5.75S71,48,68.8,48ZM22.78,38c-1.32,0-2.43,1.92-2.43,4.19s1.11,4.19,2.43,4.19h46c1.31,0,2.42-1.92,2.42-4.19S70.11,38,68.8,38Z"/></g></g></svg>