<svg xmlns="http://www.w3.org/2000/svg" viewBox="0 0 81.74 152.32"><defs><style>.cls-1{fill:#fff;}.cls-2{fill:#585b5c;}</style></defs><g id="Layer_2" data-name="Layer 2"><g id="Capa_1" data-name="Capa 1"><path class="cls-1" d="M57.81,38.55a7.8,7.8,0,0,1,5.36,2.16L79.52,56.32A4.88,4.88,0,0,1,81,60.48L75.29,85c-1.25,3.29-2.83,6.38-6.13,5.14s-3.68-5.25-2.43-8.54l3.4-19.4c.16-1.36-.13-1.71-1.14-2.64l-8.07-6.17V145.2a6.37,6.37,0,0,1-7,6.35,6.57,6.57,0,0,1-5.75-6.62V104.14A3.18,3.18,0,0,0,44.81,101a3.3,3.3,0,0,0-3,3.36V145.2a6.38,6.38,0,0,1-7,6.35,6.56,6.56,0,0,1-5.75-6.62V57.1a7.64,7.64,0,0,0-4.47-7L7,42.08a4.86,4.86,0,0,1-2.74-3.44L.74,12.48C.81,9,1.93,6.71,5.45,6.79h.2L4.72,2.58a1.52,1.52,0,0,1,3-.65L9,8c1.67,1.18,1.43,3.83,1.38,6L13.61,31.2a4.29,4.29,0,0,0,2.49,3l11.25,3.85a8.84,8.84,0,0,0,3.55.72Z"/><path class="cls-2" d="M54.56,152.32c-.24,0-.47,0-.71,0a7.33,7.33,0,0,1-6.42-7.36V104.14a2.44,2.44,0,0,0-.76-1.78,2.45,2.45,0,0,0-4.13,2V145.2a7.12,7.12,0,0,1-7.81,7.09,7.33,7.33,0,0,1-6.42-7.36V57.1a6.93,6.93,0,0,0-4-6.28L6.64,42.75a5.63,5.63,0,0,1-3.15-4L0,12.58A8.14,8.14,0,0,1,1.2,7.85,4.55,4.55,0,0,1,4.73,6.06L4,2.73A2.25,2.25,0,0,1,5.72.05a2.23,2.23,0,0,1,1.7.31,2.25,2.25,0,0,1,1,1.42L9.66,7.54c1.6,1.35,1.53,3.75,1.47,5.88l0,.59,3.23,17a3.51,3.51,0,0,0,2.05,2.46l11.2,3.83a8.23,8.23,0,0,0,3.3.68l26.92-.22a8.52,8.52,0,0,1,5.88,2.36L80,55.79a5.6,5.6,0,0,1,1.65,4.79L76,85.12a14.26,14.26,0,0,1-2.47,4.62,4,4,0,0,1-4.64,1.05,5.34,5.34,0,0,1-3.38-4A9.76,9.76,0,0,1,66,81.3L69.4,62c.12-1,0-1.11-.91-2l-6.82-5.21V145.2a7.12,7.12,0,0,1-2.34,5.27A7,7,0,0,1,54.56,152.32ZM45,100.21a3.9,3.9,0,0,1,2.7,1.08,3.94,3.94,0,0,1,1.22,2.85v40.79A5.83,5.83,0,0,0,54,150.81a5.63,5.63,0,0,0,6.19-5.61V51.85l9.26,7.08c1.21,1.11,1.63,1.67,1.42,3.32l-3.4,19.43A8.49,8.49,0,0,0,67,86.43a3.93,3.93,0,0,0,2.46,3,2.48,2.48,0,0,0,3-.68,12.73,12.73,0,0,0,2.15-4l5.63-24.39A4.09,4.09,0,0,0,79,56.86L62.66,41.24a7,7,0,0,0-4.85-2l-26.91.22a9.44,9.44,0,0,1-3.85-.78L15.86,34.9a5,5,0,0,1-3-3.54L9.64,14.13v-.75c0-2,.11-4-1.09-4.82L8.33,8.4,7,2.09a.74.74,0,0,0-.33-.48A.76.76,0,0,0,6,1.5a.79.79,0,0,0-.49.34.74.74,0,0,0-.1.58L6.58,7.58l-1,0c-2.92-.14-4.05,1.37-4.13,5L5,38.55a4.13,4.13,0,0,0,2.31,2.86l17.63,8.06a8.41,8.41,0,0,1,4.9,7.63v87.83a5.83,5.83,0,0,0,5.08,5.88,5.51,5.51,0,0,0,4.34-1.44,5.62,5.62,0,0,0,1.85-4.17V104.32a4,4,0,0,1,3.72-4.1Z"/><circle class="cls-1" cx="45.51" cy="24.95" r="9.26"/><path class="cls-2" d="M45.51,35a10,10,0,1,1,10-10A10,10,0,0,1,45.51,35Zm0-18.52A8.52,8.52,0,1,0,54,25,8.53,8.53,0,0,0,45.51,16.43Z"/></g></g></svg>