<svg xmlns="http://www.w3.org/2000/svg" viewBox="0 0 172.23 137.41"><defs><style>.cls-1{fill:#fff;}.cls-2{fill:#585b5c;}</style></defs><g id="Layer_2" data-name="Layer 2"><g id="Capa_1" data-name="Capa 1"><polygon class="cls-1" points="40.22 0.78 93.45 1.15 94.57 27.7 152.53 28.82 152.91 133.9 40.22 133.9 40.22 0.78"/><path class="cls-2" d="M153.68,134.67H39.45V0L94.19.38l1.12,26.56,58,1.13ZM41,133.13H152.14l-.37-103.55L93.83,28.45,92.72,1.91,41,1.55Z"/><path class="cls-2" d="M94.78,134.83H39.45V.63H94.78ZM41,133.29H93.24V2.17H41Z"/><path class="cls-2" d="M153.59,134.83H93.24V27.9h60.35Zm-58.81-1.54h57.27V29.44H94.78Z"/><path class="cls-2" d="M80.67,23.89H71.1V9.3h9.57Zm-7.89-1.67H79V11H72.78Z"/><path class="cls-2" d="M80.67,47.32H71.1V32.72h9.57Zm-7.89-1.68H79V34.4H72.78Z"/><path class="cls-2" d="M80.67,72.1H71.1V57.5h9.57Zm-7.89-1.68H79V59.18H72.78Z"/><path class="cls-2" d="M82.12,96.73H72.56V82.14h9.56Zm-7.89-1.68h6.22V83.81H74.23Z"/><path class="cls-2" d="M82.12,121.43H72.56V106.84h9.56Zm-7.89-1.67h6.22V108.52H74.23Z"/><path class="cls-2" d="M118,57.26H108.4V42.67H118Zm-7.89-1.68h6.22V44.34h-6.22Z"/><path class="cls-2" d="M148.09,57.26H128.86V42.67h19.23Zm-17.87-1.68h16.5V44.34h-16.5Z"/><path class="cls-2" d="M118,78.55H108.4V64H118Zm-7.89-1.67h6.22V65.64h-6.22Z"/><path class="cls-2" d="M148.09,78.55H128.86V64h19.23Zm-17.87-1.67h16.5V65.64h-16.5Z"/><path class="cls-2" d="M118,103.19H108.4V88.59H118Zm-7.89-1.68h6.22V90.27h-6.22Z"/><path class="cls-2" d="M148.09,103.19H128.86V88.59h19.23Zm-17.87-1.68h16.5V90.27h-16.5Z"/><path class="cls-2" d="M118,124.66H108.4V110.07H118ZM110.08,123h6.22V111.75h-6.22Z"/><path class="cls-2" d="M149.19,124.66H128.86V110.07h20.33ZM130.3,123h17.45V111.75H130.3Z"/><path class="cls-1" d="M66.19,82.14s6.62,13.56,8.07,18.37c1.61,5.33,3.83,21.93,3.83,21.93a7.53,7.53,0,1,1-14.43,4.26s-.39-14.59-1.68-19.25a62.66,62.66,0,0,0-3.89-9.09v36.42H28.92V98.36A62.66,62.66,0,0,0,25,107.45c-1.29,4.66-1.68,19.25-1.68,19.25A7.65,7.65,0,0,1,13.93,132a7.65,7.65,0,0,1-5-9.6s2.21-16.6,3.83-21.93c1.45-4.81,8.06-18.37,8.06-18.37S23.54,76,35.76,76H51.25S61.7,74.56,66.19,82.14Z"/><path class="cls-2" d="M58.86,135.55H28.15V101.73a42,42,0,0,0-2.38,5.93c-1.25,4.52-1.65,18.92-1.65,19.06l0,.2a8.43,8.43,0,0,1-10.38,5.86,8.1,8.1,0,0,1-4.91-4.07,8.65,8.65,0,0,1-.61-6.49c.06-.56,2.22-16.61,3.83-21.93,1.45-4.81,7.84-17.93,8.11-18.49.11-.24,3.06-6.58,15.63-6.58H51.25c.35-.06,10.91-1.4,15.6,6.53l0,0c.27.56,6.66,13.68,8.11,18.49,1.61,5.32,3.77,21.37,3.86,22a8.29,8.29,0,1,1-15.92,4.58l0-.2c0-.14-.4-14.54-1.65-19.06a42,42,0,0,0-2.38-5.93ZM29.69,134H57.32V95.07l1.46,3a61.43,61.43,0,0,1,3.95,9.23c1.25,4.54,1.66,17.9,1.7,19.33a6.75,6.75,0,1,0,12.92-3.92c0-.28-2.25-16.72-3.83-21.93-1.38-4.59-7.67-17.53-8-18.23-4.18-7-14.06-5.78-14.15-5.75H35.76c-11.49,0-14.21,5.65-14.24,5.7s-6.61,13.59-8,18.28c-1.57,5.21-3.78,21.65-3.8,21.81a7.24,7.24,0,0,0,.47,5.45,6.53,6.53,0,0,0,4,3.31,6.88,6.88,0,0,0,8.44-4.72c0-1.43.44-14.79,1.7-19.33A61.09,61.09,0,0,1,28.23,98l1.46-3Z"/><path class="cls-1" d="M57.18,56.08A13.68,13.68,0,1,1,43.51,42.41,13.67,13.67,0,0,1,57.18,56.08Z"/><path class="cls-2" d="M43.51,70.53A14.45,14.45,0,1,1,58,56.09,14.45,14.45,0,0,1,43.51,70.53Zm0-27.35a12.91,12.91,0,1,0,12.9,12.91A12.92,12.92,0,0,0,43.51,43.18Z"/><rect class="cls-2" y="134.06" width="172.23" height="3.35"/></g></g></svg>