<svg xmlns="http://www.w3.org/2000/svg" viewBox="0 0 167.72 76.88"><defs><style>.cls-1{fill:#ef3a2d;}</style></defs><title>Logo Ases Univalle</title><g id="Layer_2" data-name="Layer 2"><g id="Layer_1-2" data-name="Layer 1"><path class="cls-1" d="M20.61,41.1H.71C.08,41.09,0,41,0,40.37V.85C0,0,0,0,.86,0h39.9a.39.39,0,0,1,.42.41v40c0,.67,0,.72-.7.72H20.61M14.06,1H3.3C2.68,1,2.07,1,1.46,1,1,1,.93,1.13.91,1.55a1.93,1.93,0,0,0,0,.24q0,6.33,0,12.65a12.65,12.65,0,0,0,.16,2.21A12.42,12.42,0,0,0,8,25.71a12,12,0,0,0,10.74.45c.71-.31.72-.36.37-1.05l-5.55-11c-.34-.68-.34-.68.41-.68H26.5c.61,0,.71-.09.71-.7v-11c0-.6-.1-.69-.71-.69H14.06m13.3,38.89.24-.44L39.91,14.88c.33-.65.32-.68-.4-.68H14.92c-.11,0-.23,0-.41,0L27.36,39.89"/><path class="cls-1" d="M118.22,33.52c.85-.13,1.61-.27,2.38-.35a24.36,24.36,0,0,1,2.83-.24,1.61,1.61,0,0,1,1.54,2c0,.1-.18.21-.28.24-1.39.3-2.78.61-4.17.89-.92.18-1.85.33-2.77.49a.77.77,0,0,0-.64.47l-2.46,6.78a.79.79,0,0,0,0,.16c.56-.09,1.11-.14,1.64-.27,2-.49,4-1,6.06-1.52a22.59,22.59,0,0,1,5.16-.83H128a.63.63,0,0,1,.61.65,3.84,3.84,0,0,1-.14.88c0,.08-.12.17-.2.2-3.22,1.21-6.42,2.5-9.69,3.6a34.87,34.87,0,0,1-4.82,1c-.69.13-1.4.19-2.09.28a.46.46,0,0,1-.56-.26c-.42-.74-.88-1.45-1.3-2.18a.63.63,0,0,1-.08-.44c1.42-5.47,3-10.91,4.89-16.23.16-.45.37-.88.53-1.32a1.23,1.23,0,0,1,.84-.82c1-.28,1.94-.61,2.94-.8a69.05,69.05,0,0,1,9.51-1.09,3.64,3.64,0,0,1,1.22.17,1.07,1.07,0,0,1,.76,1.16.4.4,0,0,1-.21.28,91.27,91.27,0,0,1-9.61,2.29,1.28,1.28,0,0,0-1.19,1.06c-.27,1.05-.64,2.07-1,3.11-.06.19-.1.39-.18.68"/><path class="cls-1" d="M71.68,45.71c.84-1.12,1.62-2.22,2.46-3.28a130.22,130.22,0,0,1,15-16c.5-.45,1-.88,1.53-1.31A.5.5,0,0,1,91,25c.72.15,1.44.32,2.15.5.29.07.35.26.26.56a82.37,82.37,0,0,0-2.26,9,38,38,0,0,0-.79,8c0,1.09.11,2.17.13,3.26a4.2,4.2,0,0,1-.15,1.16.9.9,0,0,1-1.06.69,7.37,7.37,0,0,1-.82-.13,3.29,3.29,0,0,1-2.82-3.23c-.07-.6-.09-1.2-.1-1.8,0-.29-.09-.44-.4-.48l-4.62-.71c-.35-.05-.72,0-1.07-.1A.48.48,0,0,0,79,42c-1.31,1.86-2.64,3.72-3.94,5.59-.16.22-.31.17-.47.07-.8-.5-1.59-1-2.39-1.53-.14-.1-.27-.22-.47-.38m9.1-6.11.49.07,3.86.51c.48.06.47.07.59-.39.57-2.29,1.15-4.57,1.73-6.86a4.68,4.68,0,0,1,.17-.53l-.12-.08L80.78,39.6"/><path class="cls-1" d="M101.6,30.88l1.11.61c1.55.88,3.11,1.73,4.64,2.65A11.52,11.52,0,0,1,109,35.45a4.54,4.54,0,0,1,1.41,4.93A9.35,9.35,0,0,1,105,46.65a13,13,0,0,1-10.84,0,5.38,5.38,0,0,1-2.06-1.44A1.13,1.13,0,0,1,91.73,44a1.26,1.26,0,0,1,1.08-.71,2.41,2.41,0,0,1,1.7.29l1,.54a5.84,5.84,0,0,0,4.37.56,9.76,9.76,0,0,0,4.72-2.5,4.61,4.61,0,0,0,1.22-2.06,1.26,1.26,0,0,0-.36-1.39,16.51,16.51,0,0,0-1.76-1.36c-1.08-.7-2.22-1.33-3.31-2a9.54,9.54,0,0,1-2.4-2,2.76,2.76,0,0,1,.1-4.07,7.31,7.31,0,0,1,2.27-1.62,14.27,14.27,0,0,1,4.94-1.44,5.13,5.13,0,0,1,2.42.32,2.56,2.56,0,0,1,1.57,2.83c0,.08-.18.2-.28.21-.91.06-1.83.07-2.74.15-1.07.09-2.14.2-3.2.35a2.31,2.31,0,0,0-1.48.8"/><path class="cls-1" d="M145.19,29.6c-1,0-2,0-2.95.13-1.15.1-2.3.23-3.43.41a1.69,1.69,0,0,0-1.22.76l1.06.58c1.57.9,3.17,1.77,4.72,2.71a8.08,8.08,0,0,1,2.46,2.27,3.88,3.88,0,0,1,.7,3,9.18,9.18,0,0,1-5.78,7.23,13,13,0,0,1-10.59,0A5.46,5.46,0,0,1,128,45.22a2,2,0,0,1-.38-.69,1,1,0,0,1,.62-1.11,2.34,2.34,0,0,1,2,0l1.23.65a5.84,5.84,0,0,0,4.33.56,10,10,0,0,0,4.52-2.3A4.79,4.79,0,0,0,141.79,40a1.26,1.26,0,0,0-.37-1.33A11.17,11.17,0,0,0,140,37.57c-1.06-.69-2.17-1.29-3.23-2A23.66,23.66,0,0,1,134.53,34a5.4,5.4,0,0,1-1-1.18,2.5,2.5,0,0,1,0-2.85,5.52,5.52,0,0,1,1.91-1.78,13.59,13.59,0,0,1,6-1.92,6.05,6.05,0,0,1,1.75.17,2.57,2.57,0,0,1,2,3.21"/><path class="cls-1" d="M139.84,58.05c5.7-4.91,9.68-10.84,10.9-18.34A30.93,30.93,0,0,0,147,18.76a29.2,29.2,0,0,1,5,7.63,32.29,32.29,0,0,1,2.61,8.78l.43-.4a10.85,10.85,0,0,0,2.82-5.36A17.07,17.07,0,0,0,158,23a.75.75,0,0,1,0-.36c.15.58.31,1.16.44,1.75a28.11,28.11,0,0,1-.79,15.37,28.15,28.15,0,0,1-5.12,8.69,34.89,34.89,0,0,1-11.27,9c-.47.23-1,.44-1.44.66"/><path class="cls-1" d="M150.53,35c-.12.84-.23,1.69-.37,2.53a35.75,35.75,0,0,1-4.32,12.05A23.84,23.84,0,0,1,134,59.82a11.45,11.45,0,0,1-2.65.67A4,4,0,0,1,126.8,58a10.11,10.11,0,0,1-.78-3.55,25.91,25.91,0,0,1,.62-7.07c.06.4.12.8.19,1.2a11.39,11.39,0,0,0,1,3.06,5.24,5.24,0,0,0,6.56,3,16.18,16.18,0,0,0,4.94-2.4,25.94,25.94,0,0,0,9.89-12.85c.49-1.33.8-2.73,1.2-4.09,0-.1,0-.2.08-.3h.05"/><path class="cls-1" d="M150.28,52.57C157.12,47,160,39.64,160.35,31.1a13.6,13.6,0,0,1,2.58,5.07,16,16,0,0,0,4.39-10.59c.06.26.11.51.16.76s.09.53.12.79a23,23,0,0,1-5.09,16.94,23.38,23.38,0,0,1-5.4,4.76,42.3,42.3,0,0,1-6.42,3.56l-.41.18"/><path class="cls-1" d="M57.82,39.31V12.42a.91.91,0,0,1,0-.37.64.64,0,0,1,.31-.3c.2-.05.31.11.33.31V66.38c0,.08,0,.18,0,.24s-.2.29-.31.29-.25-.15-.31-.28,0-.25,0-.37V39.31"/><path class="cls-1" d="M20.63,59.33H40.18l.66,0c.21,0,.33.08.34.3s0,.47-.25.53a2.24,2.24,0,0,1-.52,0H.41C.1,60.17,0,60,0,59.7s.17-.38.45-.38H20.63Z"/><path class="cls-1" d="M4.56,47.25A1.78,1.78,0,0,1,3,48.87a3.71,3.71,0,0,1-1.37,0A1.89,1.89,0,0,1,.07,47c0-1.14,0-2.29,0-3.43,0-.25.08-.35.34-.36.77,0,.77,0,.77.72,0,1,0,1.94,0,2.92A1.06,1.06,0,0,0,2.42,48a1,1,0,0,0,1.07-1c0-1.1,0-2.2,0-3.29,0-.16.06-.44.13-.45a3.7,3.7,0,0,1,.88,0s.08.2.08.31c0,.57,0,1.13,0,1.7"/><path class="cls-1" d="M31.31,44.77c0-.43,0-.83,0-1.23s.1-.4.38-.38c.12,0,.23,0,.35,0s.31.1.31.32c0,1.68,0,3.35,0,5,0,.24-.11.35-.34.32s-.44-.08-.66-.1a.46.46,0,0,0-.22.06A1.71,1.71,0,0,1,28.85,48a2.93,2.93,0,0,1-.16-2.32,1.68,1.68,0,0,1,2.45-1l.17.06m-1.75,1.9a6.42,6.42,0,0,0,.14.74.74.74,0,0,0,.76.59.76.76,0,0,0,.76-.63,5.73,5.73,0,0,0-.08-1.43.64.64,0,0,0-.72-.48.71.71,0,0,0-.73.52,5,5,0,0,0-.13.69"/><path class="cls-1" d="M40.09,44.77c0-.45,0-.86,0-1.27,0-.24.09-.35.32-.34a2.61,2.61,0,0,0,.28,0c.32,0,.44.09.44.43,0,1.54,0,3.07,0,4.61,0,.61-.3.81-.89.61a.53.53,0,0,0-.35,0,1.71,1.71,0,0,1-2.18-.69,2.88,2.88,0,0,1-.18-2.54,1.67,1.67,0,0,1,2.38-.89l.19.08m-1.73,1.91a4.88,4.88,0,0,0,.13.73.73.73,0,0,0,.75.59.75.75,0,0,0,.76-.63A5.41,5.41,0,0,0,39.93,46a.64.64,0,0,0-.72-.52.7.7,0,0,0-.74.55,6.25,6.25,0,0,0-.11.67"/><path class="cls-1" d="M8.48,53c0-.42,0-.82,0-1.21s.09-.39.38-.39c.66,0,.66,0,.66.66,0,1.46,0,2.93,0,4.4,0,.2,0,.54-.1.56a3.13,3.13,0,0,1-.81,0,.75.75,0,0,0-.3,0,1.7,1.7,0,0,1-2.22-.71,2.84,2.84,0,0,1-.17-2.48c.4-1,1.36-1.36,2.58-.85M6.74,54.92c0,.24.07.49.14.73a.75.75,0,0,0,.72.6.83.83,0,0,0,.8-.61,2.29,2.29,0,0,0-.08-1.46.69.69,0,0,0-.75-.48.71.71,0,0,0-.71.56,6.45,6.45,0,0,0-.12.66"/><path class="cls-1" d="M26.71,56.24c.45-.1.41.18.43.45s-.16.43-.43.45a1,1,0,0,1-.95-.34,2.07,2.07,0,0,1-1.57.36A1.24,1.24,0,0,1,23.12,56,1.26,1.26,0,0,1,24,54.59a12.26,12.26,0,0,1,1.26-.21c.17,0,.39,0,.39-.27a.41.41,0,0,0-.38-.42.74.74,0,0,0-1,.51.45.45,0,0,1-.35.18c-.66,0-.75-.1-.53-.73a1.72,1.72,0,0,1,2-.89c.93.15,1.3.56,1.3,1.4,0,.57,0,1.14,0,1.7Zm-1.08-1a10.36,10.36,0,0,0-1.16.22.52.52,0,0,0-.28.4.5.5,0,0,0,.27.38.9.9,0,0,0,1.17-1"/><path class="cls-1" d="M36.53,48c.49-.07.42.25.43.53s-.23.36-.47.38a.85.85,0,0,1-.81-.27,7.54,7.54,0,0,1-1.35.3,1.26,1.26,0,0,1-1.39-1.16,1.33,1.33,0,0,1,1.14-1.49c.37-.07.74-.09,1.1-.16.12,0,.31-.12.31-.19a.55.55,0,0,0-.17-.4.8.8,0,0,0-1.21.4c-.08.22-.39.31-.77.22s-.22-.26-.19-.43a1.29,1.29,0,0,1,1-1.13,2.69,2.69,0,0,1,1.54,0,1.15,1.15,0,0,1,.85,1.17V48m-1.07-1c-.41.08-.8.12-1.17.23a.52.52,0,0,0-.27.37.45.45,0,0,0,.21.38,1,1,0,0,0,1-.17.68.68,0,0,0,.25-.81"/><path class="cls-1" d="M20.8,55.45a3.61,3.61,0,0,0,.15-.38c.36-1.07.73-2.15,1.06-3.23a.53.53,0,0,1,.61-.45c.76,0,.76,0,.5.73-.55,1.52-1.12,3-1.66,4.56a.5.5,0,0,1-.57.41c-.69,0-.57.09-.82-.59q-.84-2.31-1.69-4.62c-.14-.41-.1-.48.32-.48.87,0,.68-.08.94.65.34,1,.67,2,1,3,0,.12.09.23.16.41"/><path class="cls-1" d="M16.66,47.13a.74.74,0,0,0,.59.84.87.87,0,0,0,1-.43.84.84,0,0,1,1-.25.34.34,0,0,1,.07.3,1.69,1.69,0,0,1-.85,1.13,1.93,1.93,0,0,1-2.88-1.32,3.79,3.79,0,0,1,.07-1.5,1.9,1.9,0,0,1,2.42-1.35,1.83,1.83,0,0,1,1.28,1.73c.13,1,.07.84-.73.85h-2m1.64-.94c-.1-.51-.35-.73-.8-.73a.83.83,0,0,0-.83.73Z"/><path class="cls-1" d="M32.51,55.39c.05.53.25.76.7.84a.84.84,0,0,0,1-.49c.11-.23.86-.37,1-.17a.52.52,0,0,1,0,.39,1.76,1.76,0,0,1-1.7,1.23,1.79,1.79,0,0,1-1.84-1,2.75,2.75,0,0,1,.14-2.54,1.8,1.8,0,0,1,1.87-.87,1.6,1.6,0,0,1,1.46,1.2A9,9,0,0,1,35.28,55c0,.27-.09.36-.36.36H32.73l-.22,0m1.66-.94c-.1-.54-.4-.79-.86-.75a.79.79,0,0,0-.75.75Z"/><path class="cls-1" d="M11.27,55.36c0,.52.21.76.62.85a.87.87,0,0,0,1-.44c.12-.24.79-.41,1-.22a.4.4,0,0,1,0,.34,1.71,1.71,0,0,1-1.18,1.22,1.92,1.92,0,0,1-2.59-1.76,3.57,3.57,0,0,1,.14-1.26,1.83,1.83,0,0,1,1.94-1.36,1.71,1.71,0,0,1,1.67,1.44A5.36,5.36,0,0,1,14,55c.05.3-.06.41-.38.4H11.27m1.65-.91a.76.76,0,0,0-.83-.75.8.8,0,0,0-.78.75Z"/><path class="cls-1" d="M24.43,49a7.55,7.55,0,0,1-1-.26,1.31,1.31,0,0,1-.8-1.28c0-.08.09-.22.15-.23a4,4,0,0,1,.69,0c.06,0,.14.14.16.23a.57.57,0,0,0,.5.5,1,1,0,0,0,.92-.16c.19-.17.13-.38-.14-.47S24,47.12,23.62,47a1.07,1.07,0,0,1-.89-1.08,1.29,1.29,0,0,1,.76-1.23,2.1,2.1,0,0,1,1.75,0,1.29,1.29,0,0,1,.79,1.1c0,.21-.05.33-.28.33a2.24,2.24,0,0,1-.45,0,.44.44,0,0,1-.26-.22.82.82,0,0,0-1.19-.29.24.24,0,0,0,.08.43c.21.08.44.13.66.19s.45.11.67.18a1.14,1.14,0,0,1,.91,1,1.29,1.29,0,0,1-.69,1.33,6.06,6.06,0,0,1-1.05.33"/><path class="cls-1" d="M6.59,44.67a7.08,7.08,0,0,1,1.25-.15A1.25,1.25,0,0,1,9.09,45.8c0,.92,0,1.83,0,2.75,0,.2-.09.27-.29.29-.74,0-.74,0-.74-.68s0-1.35,0-2c0-.28,0-.56-.38-.66a.75.75,0,0,0-.89.37,1.69,1.69,0,0,0-.16.66c0,.64,0,1.27,0,1.91,0,.32-.11.45-.43.41H5.89c-.22,0-.32-.08-.32-.31V44.91c0-.21.08-.33.31-.31l.71.07"/><path class="cls-1" d="M26.05,73.6a1.35,1.35,0,0,1,1.1-.47,1,1,0,0,1,1,1c0,.86,0,1.73,0,2.63h-.67c0-.28,0-.55,0-.83,0-.53,0-1.06,0-1.59,0-.24-.09-.51-.36-.53a1,1,0,0,0-.68.18,1.1,1.1,0,0,0-.28.71c0,.68,0,1.36,0,2.06h-.69V75c0-.26,0-.51,0-.76a.51.51,0,0,0-.75-.49.85.85,0,0,0-.56.84c0,.6,0,1.2,0,1.8,0,.25-.06.35-.33.35s-.37-.06-.37-.35c0-1.05,0-2.1,0-3.18h.62c0,.06,0,.15.05.27a1.27,1.27,0,0,1,1.93.08"/><path class="cls-1" d="M157.06,28.27a1.58,1.58,0,0,1-1.65,1.59,1.61,1.61,0,0,1-1.6-1.61,1.64,1.64,0,0,1,1.64-1.63,1.62,1.62,0,0,1,1.61,1.65"/><path class="cls-1" d="M13.49,47.21,14,45.75l.3-.85c.09-.27.86-.46,1-.25a.39.39,0,0,1,0,.32Q14.7,46.79,14,48.6a.53.53,0,0,1-.33.22.86.86,0,0,1-.45,0c-.13,0-.31-.13-.35-.24-.46-1.19-.89-2.4-1.33-3.6-.1-.29,0-.39.28-.39.88,0,.7-.12,1,.69.21.64.41,1.29.62,1.93h.08"/><path class="cls-1" d="M8.4,76.74l-.21,0c-.57,0-.57,0-.75-.52-.29-.85-.29-.85-1.19-.85s-.93,0-1.24.86c-.21.58-.22.59-.92.46,0-.11.07-.21.1-.32.53-1.38,1.06-2.76,1.56-4.15.11-.33.3-.31.55-.32s.4,0,.49.3c.49,1.4,1,2.79,1.51,4.18l.1.33M6.29,73H6.21l-.64,1.75H6.85c0-.11,0-.19,0-.26L6.29,73"/><path class="cls-1" d="M18.27,72h.64v4.77c-.24,0-.51.18-.67-.2A1.41,1.41,0,0,1,16,76a2.55,2.55,0,0,1-.14-1.86,1.39,1.39,0,0,1,2.24-.73l.14.06V72Zm-1.8,3a5.24,5.24,0,0,0,.12.67.79.79,0,0,0,.8.64.81.81,0,0,0,.8-.69,4.32,4.32,0,0,0-.08-1.29.68.68,0,0,0-.78-.54.73.73,0,0,0-.75.59,5.3,5.3,0,0,0-.11.62"/><path class="cls-1" d="M162.12,30.29a1.5,1.5,0,0,1,3,0,1.5,1.5,0,1,1-3,0"/><path class="cls-1" d="M1.61,64.06c.78-.1.78-.1,1,.56l1.11,3.3c.07-.18.12-.28.15-.39l1-3c.2-.62.26-.66,1-.51,0,.1,0,.2-.09.3-.5,1.4-1,2.79-1.52,4.2-.09.27-.24.31-.49.3s-.39,0-.49-.3c-.5-1.42-1-2.82-1.54-4.23,0-.09-.05-.18-.09-.28"/><path class="cls-1" d="M15.51,76.23c-.11.27-.14.5-.25.56a.71.71,0,0,1-.86-.29,6.29,6.29,0,0,1-1,.35,1.08,1.08,0,0,1-1.34-1.31,1.13,1.13,0,0,1,1.09-.86c.26,0,.53-.05.79-.09s.37-.06.39-.31a.46.46,0,0,0-.32-.51c-.56-.22-1,0-1.22.59h-.54a1,1,0,0,1,1-1.2,2.62,2.62,0,0,1,.79,0,1,1,0,0,1,1,1.12v1.6c0,.24,0,.47.47.35m-1.19-1.14a9.1,9.1,0,0,0-1.2.23.59.59,0,0,0-.33.44.58.58,0,0,0,.3.47,1,1,0,0,0,1-.23.87.87,0,0,0,.21-.91"/><path class="cls-1" d="M37.13,76.36c-.08.15-.11.37-.23.43-.29.15-.62,0-.89-.35a1.64,1.64,0,0,1-1.47.39,1,1,0,0,1-.83-1,1,1,0,0,1,.78-1.1,9.87,9.87,0,0,1,1.09-.16c.21,0,.42,0,.43-.35a.46.46,0,0,0-.38-.5c-.57-.17-.9,0-1.15.61h-.54a1,1,0,0,1,1-1.21,3.3,3.3,0,0,1,.77,0,1,1,0,0,1,1,1.14v1.56c0,.24,0,.51.41.4l0,.11M36,75.08c-.41.08-.8.14-1.2.23a.44.44,0,0,0-.33.53.47.47,0,0,0,.45.44c.73.09,1.18-.39,1.08-1.2"/><path class="cls-1" d="M39.64,68.41c-.07.18-.08.39-.19.46-.26.17-.64,0-.94-.34a1.77,1.77,0,0,1-1.23.43,1.08,1.08,0,0,1-.23-2.13c.35-.07.71-.1,1.06-.15s.4-.06.42-.32a.47.47,0,0,0-.36-.52.83.83,0,0,0-1.17.6h-.56a1,1,0,0,1,.71-1.11,3.07,3.07,0,0,1,1.13-.07,1,1,0,0,1,.92,1.13V68c0,.37,0,.37.44.46m-1.16-1.24c-.42.08-.82.14-1.21.23a.43.43,0,0,0-.34.49.46.46,0,0,0,.4.46.94.94,0,0,0,1.15-1.18"/><path class="cls-1" d="M20.3,75.22c0,.63.22.91.65,1A.88.88,0,0,0,22,75.76c.19-.34.46-.11.7-.16a1.38,1.38,0,0,1-1.23,1.25A1.55,1.55,0,0,1,19.75,76a2.31,2.31,0,0,1,.1-2.14,1.5,1.5,0,0,1,1.66-.73,1.3,1.3,0,0,1,1.13,1c.09.32.12.65.19,1ZM22,74.65c0-.57-.31-.9-.83-.9a.88.88,0,0,0-.89.9Z"/><path class="cls-1" d="M14.39,67.32H11.87c0,.54.16.86.57,1a.88.88,0,0,0,1.12-.43c.18-.36.46-.13.69-.19a1.32,1.32,0,0,1-.84,1.17,1.6,1.6,0,0,1-2.26-1.28,3.42,3.42,0,0,1,.09-1.23,1.48,1.48,0,0,1,1.65-1.12,1.37,1.37,0,0,1,1.35,1.18c.07.27.09.56.15.92m-.79-.58c0-.63-.38-.95-.92-.91a.84.84,0,0,0-.78.91Z"/><path class="cls-1" d="M22.65,67.32H20.13a.84.84,0,0,0,.56,1,.89.89,0,0,0,1.13-.43c.18-.37.46-.13.71-.19a1.4,1.4,0,0,1-1.16,1.25,1.56,1.56,0,0,1-1.76-.73,2.26,2.26,0,0,1,.12-2.34,1.5,1.5,0,0,1,1.58-.63,1.28,1.28,0,0,1,1.12,1c.1.35.14.71.22,1.13m-2.53-.59h1.74c0-.58-.32-.88-.82-.9a.91.91,0,0,0-.92.9"/><path class="cls-1" d="M28.33,67.08a1.67,1.67,0,0,1,2.17-1.79,1.89,1.89,0,0,1,1.09,2.23A1.62,1.62,0,0,1,29.91,69a1.69,1.69,0,0,1-1.58-1.87m2.64,0a7.4,7.4,0,0,0-.19-.75.81.81,0,0,0-.81-.55.82.82,0,0,0-.8.56,1.74,1.74,0,0,0,.06,1.54.84.84,0,0,0,1.48,0,4,4,0,0,0,.26-.81"/><path class="cls-1" d="M29.66,54.23c0-.81,0-1.62,0-2.43,0-.31.11-.43.4-.4h.32c.21,0,.31.08.31.31v5.07c0,.22-.1.29-.31.3-.72,0-.72,0-.72-.67Z"/><path class="cls-1" d="M15.76,54.28c0,.81,0,1.62,0,2.43,0,.29-.11.38-.39.37-.65,0-.65,0-.65-.63V51.9c0-.5,0-.5.51-.5s.52,0,.52.48v2.4"/><path class="cls-1" d="M28.76,54.28v2.36c0,.43,0,.44-.46.44s-.57,0-.57-.56V51.94c0-.54,0-.54.5-.54s.53,0,.53.55Z"/><path class="cls-1" d="M21.18,44.72c.36-.08.65-.17.95-.22s.33.08.32.31a1.61,1.61,0,0,0,0,.31c0,.32-.08.46-.42.45a.77.77,0,0,0-.81.85c0,.66,0,1.32,0,2,0,.33-.08.49-.43.44a1.28,1.28,0,0,1-.34,0c-.1,0-.25-.16-.25-.24q0-1.87,0-3.75c0-.07.08-.21.13-.21.3,0,.64-.16.85.1"/><path class="cls-1" d="M10.71,66.55c-.37,0-.62.07-.78-.36s-1-.49-1.3,0A2,2,0,0,0,8.6,68,.78.78,0,0,0,10,67.89c.19-.41.24-.43.73-.31a1.34,1.34,0,0,1-1.11,1.35,1.5,1.5,0,0,1-1.72-.85A2.31,2.31,0,0,1,8,66a1.61,1.61,0,0,1,2-.63,1.29,1.29,0,0,1,.72,1.21"/><path class="cls-1" d="M26.06,66.54c-.35.06-.61.1-.77-.34a.76.76,0,0,0-1.3,0A2,2,0,0,0,24,68a.75.75,0,0,0,.7.36.63.63,0,0,0,.64-.45c.12-.46.42-.39.74-.35a1.32,1.32,0,0,1-.88,1.32,1.56,1.56,0,0,1-1.77-.51,2.37,2.37,0,0,1,.11-2.64,1.71,1.71,0,0,1,1.72-.44,1.28,1.28,0,0,1,.85,1.26"/><path class="cls-1" d="M33.32,74.45c-.32,0-.58.11-.74-.32a.77.77,0,0,0-1.32,0,2,2,0,0,0,0,1.83.77.77,0,0,0,1.34-.09c.22-.43.22-.43.72-.35a1.29,1.29,0,0,1-.89,1.32,1.52,1.52,0,0,1-2-1.15,3.17,3.17,0,0,1,0-1.3,1.57,1.57,0,0,1,1.93-1.2,1.24,1.24,0,0,1,1,1.3"/><path class="cls-1" d="M11.7,74.45c-.35,0-.62.11-.78-.34a.76.76,0,0,0-1.3,0,2,2,0,0,0,0,1.82.74.74,0,0,0,1.34-.09c.17-.44.43-.38.75-.34a1.34,1.34,0,0,1-.91,1.33A1.58,1.58,0,0,1,9,76.25a2.38,2.38,0,0,1,.12-2.61,1.67,1.67,0,0,1,1.72-.44,1.28,1.28,0,0,1,.87,1.25"/><path class="cls-1" d="M88.26,59.35h-.54c0-.43.11-.83.15-1.24,0-.24.11-.51-.22-.61a.57.57,0,0,0-.65.44c-.09.35-.13.71-.19,1.06,0,.11,0,.22-.07.35h-.53c.05-.43.1-.85.16-1.27,0-.25.08-.52-.24-.59a.53.53,0,0,0-.62.4c-.11.4-.15.81-.22,1.22,0,.07,0,.14,0,.23h-.55c.1-.76.2-1.52.31-2.34l.63.09c.6-.25.88-.22,1.3.23a2.56,2.56,0,0,1,.53-.3.69.69,0,0,1,1,.75c0,.51-.13,1-.21,1.58"/><path class="cls-1" d="M85.77,51.7c.62-.25.91-.22,1.31.23a3.21,3.21,0,0,1,.46-.29.72.72,0,0,1,1.06.8c0,.49-.13,1-.21,1.5h-.54c.05-.42.11-.82.16-1.23,0-.24.1-.51-.22-.61a.56.56,0,0,0-.64.41,8.24,8.24,0,0,0-.19,1c0,.14,0,.29-.08.45h-.54c.06-.43.11-.84.16-1.26,0-.24.09-.51-.24-.6a.56.56,0,0,0-.63.43c-.1.39-.14.79-.21,1.19,0,.07,0,.14,0,.23h-.55c.09-.69.18-1.38.28-2.06,0-.09.11-.23.17-.24a2,2,0,0,1,.48.06"/><path class="cls-1" d="M103.69,53.92c0-.45.13-.9.15-1.34,0-.15-.07-.41-.16-.44a.64.64,0,0,0-.52.13,1.5,1.5,0,0,0-.29.64c-.07.33-.1.68-.15,1h-.55c0-.35.09-.68.14-1l0-.28c0-.21.07-.47-.21-.55a.5.5,0,0,0-.63.36,5.75,5.75,0,0,0-.22,1.08c-.08.49-.08.5-.61.38.09-.69.18-1.39.29-2.08,0-.08.11-.2.17-.2a1.1,1.1,0,0,1,.47.1c.6-.29.92-.26,1.29.17a4.08,4.08,0,0,1,.71-.32.64.64,0,0,1,.83.67,8.77,8.77,0,0,1-.2,1.54c0,.11-.2.15-.4.15s-.12,0-.14,0"/><path class="cls-1" d="M77.94,59.82c.24-.15.42-.28.73-.11a.69.69,0,0,0,1-.47,4.71,4.71,0,0,1-.92.1.86.86,0,0,1-.7-.55,1.28,1.28,0,0,1,.36-1.51,1.08,1.08,0,0,1,1.4-.13l.77-.17c-.13.86-.23,1.64-.37,2.41a1,1,0,0,1-.9.88,1.37,1.37,0,0,1-1.42-.45m1.21-1a.77.77,0,0,0,.8-.75.61.61,0,0,0-.64-.63.78.78,0,0,0-.77.78.56.56,0,0,0,.61.6"/><path class="cls-1" d="M10,46.69c0-.58,0-1.15,0-1.73,0-.26.08-.37.36-.37.67,0,.67,0,.67.68,0,1,0,2.07,0,3.11,0,.35-.1.5-.45.45h-.24c-.26,0-.35-.08-.35-.34,0-.6,0-1.2,0-1.8"/><path class="cls-1" d="M27.86,46.7c0,.59,0,1.18,0,1.77,0,.28-.1.37-.37.37-.66,0-.66,0-.66-.66,0-1,0-2.08,0-3.12,0-.45,0-.46.47-.46h.21c.25,0,.35.09.35.34,0,.59,0,1.18,0,1.77"/><path class="cls-1" d="M111.46,57.28c.07-.41.12-.78.18-1.17h.55L112,57.65c-.07.48-.13,1-.21,1.44,0,.1-.11.25-.18.27a.77.77,0,0,1-.43-.11c-.71.29-1.15.24-1.47-.21a1.36,1.36,0,0,1,.15-1.7,1.13,1.13,0,0,1,1.62-.06m-.08.85a.59.59,0,0,0-.59-.66.79.79,0,0,0-.78.8.6.6,0,0,0,.59.67.79.79,0,0,0,.78-.81"/><path class="cls-1" d="M89.66,53.73c-.06.37-.11.73-.17,1.11H89c.06-.5.12-1,.19-1.47s.12-1,.2-1.44c0-.11.1-.28.17-.29a1,1,0,0,1,.46.1c.6-.28,1.09-.24,1.42.19a1.35,1.35,0,0,1-.1,1.69,1.13,1.13,0,0,1-1.63.11m1.42-1a.59.59,0,0,0-.61-.64.8.8,0,0,0-.74.84.6.6,0,0,0,.6.63.78.78,0,0,0,.75-.83"/><path class="cls-1" d="M78.61,53.94c-.52.07-.53.07-.65-.4,0-.18-.13-.26-.31-.24a2,2,0,0,1-.49,0,.66.66,0,0,0-.82.47c-.12.35-.42.17-.7.21,0-.12.09-.22.13-.3.48-.89,1-1.77,1.42-2.66a.37.37,0,0,1,.47-.22.52.52,0,0,1,.24.31c.24.93.47,1.87.71,2.84m-.87-1.23c-.09-.35-.16-.65-.24-1h-.08l-.53,1h.57l.28,0"/><path class="cls-1" d="M28,68.33v.55a5.44,5.44,0,0,1-.7,0c-.34,0-.51-.29-.52-.75s0-1.22,0-1.84v-.37l-.45-.06v-.53l.43-.06v-.91h.69v.91l.54,0v.53c-.53.09-.53.09-.53.63v1.25c0,.53,0,.53.54.6"/><path class="cls-1" d="M102,56.73c0,.24-.06.43-.09.69h1.13c0,.19-.06.34-.09.53-.28,0-.54,0-.8,0s-.36.08-.37.33,0,.34-.06.55h1.07c.07.51,0,.54-.44.54h-1.3c.14-1,.27-2,.42-3a.25.25,0,0,1,.17-.16h1.55c0,.21,0,.36-.07.55Z"/><path class="cls-1" d="M115.49,57.28c.08-.4.36-.22.62-.25-.11.75-.2,1.46-.31,2.18a.25.25,0,0,1-.18.15.94.94,0,0,1-.42-.11c-.67.3-1.14.24-1.47-.22a1.35,1.35,0,0,1,.18-1.71,1.09,1.09,0,0,1,1.58,0m-1.43,1a.6.6,0,0,0,.62.64.82.82,0,0,0,.76-.83.61.61,0,0,0-.63-.64.78.78,0,0,0-.75.83"/><path class="cls-1" d="M92.24,59a1.42,1.42,0,0,1-1.76.26,1.22,1.22,0,0,1-.31-1.53,1.31,1.31,0,0,1,1.54-.7,1.11,1.11,0,0,1,.77,1.33H90.64a.55.55,0,0,0,.85.52.59.59,0,0,1,.75.12m-.31-1.06a.62.62,0,0,0-.61-.44.7.7,0,0,0-.63.44Z"/><path class="cls-1" d="M75.71,58.34a.56.56,0,0,0,.88.5.58.58,0,0,1,.7.12,1.35,1.35,0,0,1-1.65.34,1.17,1.17,0,0,1-.42-1.53A1.32,1.32,0,0,1,76.75,57a1.12,1.12,0,0,1,.8,1.35Zm.06-.42H77a.56.56,0,0,0-.52-.43.67.67,0,0,0-.7.43"/><path class="cls-1" d="M108.2,53.58a1.42,1.42,0,0,1-1.78.25,1.24,1.24,0,0,1-.27-1.54,1.32,1.32,0,0,1,1.62-.65,1.15,1.15,0,0,1,.71,1.09c0,.17-.06.25-.24.24h-1.66c.08.48.44.71.86.5a.61.61,0,0,1,.76.11m-1.56-1h1.24a.56.56,0,0,0-.52-.44.72.72,0,0,0-.72.44"/><path class="cls-1" d="M94,51.87c.1-.37.37-.23.62-.22-.09.68-.17,1.34-.27,2,0,.11-.09.29-.15.3a1,1,0,0,1-.51-.08c-.61.28-1.09.23-1.42-.21A1.33,1.33,0,0,1,92.44,52,1.13,1.13,0,0,1,94,51.87m-.67.21a.79.79,0,0,0-.76.82.61.61,0,0,0,.63.64.79.79,0,0,0,.75-.83.59.59,0,0,0-.62-.63"/><path class="cls-1" d="M99.59,51.8c.14-.26.38-.26.74-.25-.06.43-.1.74-.14,1.05s-.09.74-.16,1.1c0,.1-.09.25-.15.26a1.09,1.09,0,0,1-.46-.1c-.69.29-1.15.23-1.47-.22a1.37,1.37,0,0,1,.18-1.72,1.06,1.06,0,0,1,1.46-.12m-1.31,1.09a.59.59,0,0,0,.6.66.81.81,0,0,0,.77-.82.6.6,0,0,0-.61-.65.77.77,0,0,0-.76.81"/><path class="cls-1" d="M98.07,59.43a1,1,0,0,1-1.1-1.1A1.33,1.33,0,0,1,98.31,57a1.1,1.1,0,0,1,1.13,1.15,1.34,1.34,0,0,1-1.37,1.32m.06-.52a.73.73,0,0,0,.73-.8.56.56,0,0,0-.62-.62.78.78,0,0,0-.72.82.56.56,0,0,0,.61.6"/><path class="cls-1" d="M74.82,56.62l-.38.34c-.11-.08-.2-.2-.31-.23a1.64,1.64,0,0,0-.44,0c0,.13,0,.3.06.4s.41.46.6.71A1,1,0,0,1,74.51,59a1.07,1.07,0,0,1-1.66.12,2.44,2.44,0,0,1-.25-.28l.42-.34c.13.11.23.27.37.3a.69.69,0,0,0,.53,0c.2-.12.14-.35,0-.52s-.35-.4-.52-.6c-.45-.53-.47-1.06,0-1.4a1,1,0,0,1,1.45.36"/><path class="cls-1" d="M114,54a1,1,0,0,1-1.09-1.1,1.36,1.36,0,0,1,1.36-1.37,1.09,1.09,0,0,1,1.1,1.17A1.3,1.3,0,0,1,114,54m.81-1.29a.57.57,0,0,0-.59-.65.76.76,0,0,0-.75.78.58.58,0,0,0,.56.66.76.76,0,0,0,.78-.79"/><path class="cls-1" d="M83.1,54A1,1,0,0,1,82,53a1.35,1.35,0,0,1,1.34-1.39,1.09,1.09,0,0,1,1.12,1.15A1.31,1.31,0,0,1,83.1,54m.8-1.28a.59.59,0,0,0-.59-.66.77.77,0,0,0-.76.77.58.58,0,0,0,.54.67.78.78,0,0,0,.81-.78"/><path class="cls-1" d="M32.36,65.32h.58c0,.09,0,.19.08.33.31-.25.6-.53,1.06-.4v.63a2.59,2.59,0,0,0-.58.13.79.79,0,0,0-.48.78c0,.6,0,1.2,0,1.8,0,.29-.16.28-.36.28s-.34,0-.34-.25c0-1,0-2.08,0-3.12a1.49,1.49,0,0,1,0-.18"/><path class="cls-1" d="M15.08,65.32h.61c0,.1,0,.2.07.33.31-.26.61-.53,1.07-.4v.65l-.35,0a.85.85,0,0,0-.72.92c0,.66,0,1.31,0,2a2.36,2.36,0,0,1-.47,0c-.08,0-.2-.13-.2-.2,0-1.1,0-2.2,0-3.34"/><path class="cls-1" d="M17.38,65.31H18c0,.12,0,.22.06.37.32-.3.62-.56,1.08-.42v.61l0,0c-.83.1-1,.32-1,1.17v1.28c0,.57-.06.61-.65.47Z"/><path class="cls-1" d="M94.92,59.35h-.54c0-.37.08-.72.13-1.07a2,2,0,0,0,0-.24c0-.22.09-.48-.21-.55a.51.51,0,0,0-.61.35,7.79,7.79,0,0,0-.22,1.09c-.08.49-.08.49-.61.4.1-.76.21-1.52.32-2.33l.61.09a.28.28,0,0,1,0,.09,2.44,2.44,0,0,1,.28-.14.71.71,0,0,1,1,.77c0,.25-.07.5-.1.75s-.07.51-.11.79"/><path class="cls-1" d="M110.33,53.94c.06-.45.13-.89.18-1.32,0-.21.07-.45-.2-.52a.47.47,0,0,0-.58.27,3.58,3.58,0,0,0-.2.73,1.84,1.84,0,0,0-.06.41c-.07.5-.07.5-.61.43l.23-1.77a.85.85,0,0,1,0-.23c0-.11.09-.28.15-.3a2.18,2.18,0,0,1,.5,0,.38.38,0,0,0,0,.1l.27-.14a.7.7,0,0,1,1,.75c0,.38-.1.76-.15,1.14s-.07.47-.61.4"/><path class="cls-1" d="M118.48,59.35h-.54c0-.44.11-.86.16-1.28,0-.23.11-.5-.21-.58a.51.51,0,0,0-.62.38,8.06,8.06,0,0,0-.21,1.09c-.08.44-.07.44-.6.39.1-.76.2-1.52.31-2.34l.61.07v.1c.1,0,.18-.1.28-.14a.69.69,0,0,1,1,.73c0,.52-.13,1-.21,1.58"/><path class="cls-1" d="M95.55,54H95c.11-.78.21-1.53.32-2.35l.63.09s0,0,0,.06a3.2,3.2,0,0,1,.52-.18.63.63,0,0,1,.78.68c0,.56-.12,1.12-.18,1.69h-.56l.15-1.3c0-.22.1-.47-.19-.55a.5.5,0,0,0-.62.36,7,7,0,0,0-.2.91c0,.18,0,.37-.08.59"/><path class="cls-1" d="M117.05,54.82c.15-.26.27-.53.43-.76a.81.81,0,0,0,.09-.81c-.2-.51-.35-1-.52-1.56.48-.14.52-.12.66.31s.2.64.34,1c.23-.39.43-.7.58-1a.58.58,0,0,1,.8-.37,2.06,2.06,0,0,1-.12.26c-.5.86-1,1.71-1.48,2.59a.58.58,0,0,1-.78.31"/><path class="cls-1" d="M81.79,57.05c-.05.43-.1.84-.16,1.25s0,.52.31.6.51-.11.58-.46.12-.84.19-1.26a.37.37,0,0,1,0-.14h.55c-.11.61-.17,1.2-.33,1.77a1,1,0,0,1-1.22.6.85.85,0,0,1-.68-1c0-.4.09-.8.15-1.2,0-.23,0-.23.57-.18"/><path class="cls-1" d="M108.54,57h.58c-.13.63-.19,1.25-.37,1.83a1,1,0,0,1-1.22.55.87.87,0,0,1-.65-1c0-.45.11-.89.17-1.36h.55l-.12,1c0,.15,0,.3,0,.45a.37.37,0,0,0,.32.46.41.41,0,0,0,.51-.3c.09-.37.14-.76.2-1.13,0-.14,0-.27.07-.44"/><path class="cls-1" d="M81.54,52.1l-.44.24c-.5-.33-.91-.33-1.22,0a.76.76,0,0,0-.08,1c.24.3.68.29,1.2,0l.38.27a1.42,1.42,0,0,1-2,.18,1.3,1.3,0,0,1,.14-1.83,1.36,1.36,0,0,1,2,.2"/><rect class="cls-1" x="34.75" y="65.33" width="0.62" height="3.51"/><path class="cls-1" d="M6.41,65.32h.64c0,.12,0,.25,0,.37,0,.88,0,1.76,0,2.64,0,.59,0,.6-.66.48Z"/><path class="cls-1" d="M29.05,76.74v-3.5h.66v3c0,.61,0,.61-.66.53"/><path class="cls-1" d="M103.2,59.05l.35-.4a3.17,3.17,0,0,0,.53.25.37.37,0,0,0,.28-.13s0-.19-.11-.26-.24-.18-.35-.28a.72.72,0,0,1-.26-1,.82.82,0,0,1,1.09-.17,1.42,1.42,0,0,1,.28.23l-.24.4a1.39,1.39,0,0,0-.33-.21c-.09,0-.2,0-.31,0a1,1,0,0,0,.11.26,4.19,4.19,0,0,0,.33.26c.36.3.45.58.31.9a.78.78,0,0,1-.92.45,4,4,0,0,1-.76-.37"/><path class="cls-1" d="M119.37,57.64c-.11-.16-.23-.25-.22-.34s.14-.18.19-.28a1.66,1.66,0,0,0,.19-.48c.08-.45.07-.45.58-.36,0,.25,0,.51-.07.79l.33.09c0,.22,0,.45-.3.45,0,0-.13.15-.14.23-.07.4-.12.8-.18,1.2s-.09.5-.6.38c.08-.58.15-1.16.22-1.68"/><path class="cls-1" d="M105.61,57.67c-.11-.19-.22-.29-.22-.39s.16-.17.21-.27a1.89,1.89,0,0,0,.17-.45c.08-.46.07-.46.58-.39,0,.26,0,.53-.07.82l.32.06c0,.24,0,.46-.31.46-.05,0-.12.16-.13.25-.07.38-.11.77-.16,1.16s-.07.51-.61.41c.08-.58.15-1.16.22-1.66"/><path class="cls-1" d="M95.59,59.35c.07-.55.14-1.06.2-1.57,0-.1-.1-.19-.12-.29a3.38,3.38,0,0,1,0-.45c.34,0,.27-.29.3-.48.08-.45.07-.45.59-.4,0,.27,0,.53-.07.82l.4.09c-.1.16-.17.38-.27.4s-.25.17-.27.33l-.21,1.55Z"/><path class="cls-1" d="M122.5,56.12c-.14,1-.27,2.05-.42,3.07-.06.37-.36.09-.58.24.1-.8.2-1.5.29-2.21,0-.23.07-.45.1-.68.07-.48.07-.48.61-.42"/><path class="cls-1" d="M89.72,57c-.1.73-.18,1.43-.29,2.13-.06.37-.35.15-.58.2.11-.8.21-1.56.32-2.33Z"/><path class="cls-1" d="M105.68,51.66c-.1.77-.2,1.52-.31,2.29h-.54c0-.23,0-.47.07-.7l.18-1.23c.07-.43.07-.43.6-.36"/><path class="cls-1" d="M112.64,57h.55c-.09.72-.18,1.41-.28,2.11-.06.37-.33.19-.58.21.1-.79.2-1.55.31-2.32"/><path class="cls-1" d="M121.29,57c-.11.79-.21,1.54-.32,2.31h-.55c.11-.78.21-1.54.31-2.31Z"/><path class="cls-1" d="M84.41,57.05c-.11.77-.21,1.52-.31,2.3h-.55c.11-.77.21-1.52.31-2.3Z"/><path class="cls-1" d="M27.86,43.73c0,.56,0,.56-.5.56s-.52,0-.52-.59,0-.54.53-.54.49,0,.49.57"/><path class="cls-1" d="M11,43.71c0,.58,0,.58-.49.58s-.54,0-.54-.61,0-.52.51-.52.52,0,.52.55"/><path class="cls-1" d="M36.16,63.94c-.31.33-.55.64-.84.89-.13.11-.36.1-.57.15a1.14,1.14,0,0,1,1.41-1"/><path class="cls-1" d="M20.78,72.87A4.08,4.08,0,0,1,21.4,72c.18-.15.52-.11.79-.16l0,.1a12.33,12.33,0,0,1-.86.91c-.11.09-.34,0-.6.07"/><path class="cls-1" d="M95.65,51s-.06-.11-.1-.21c.47-.5,1.06.07,1.57-.21l.16.3a.81.81,0,0,1-.81.2,5.83,5.83,0,0,0-.82-.08"/><rect class="cls-1" x="6.41" y="64.05" width="0.63" height="0.72"/><rect class="cls-1" x="29.05" y="71.97" width="0.63" height="0.72"/><path class="cls-1" d="M113,56.78c-.09-.13-.26-.28-.24-.4a.48.48,0,0,1,.35-.31c.08,0,.28.2.29.32s-.15.26-.24.4H113"/><path class="cls-1" d="M121.52,56.48a1.25,1.25,0,0,1-.41.24.27.27,0,0,1-.3-.36.46.46,0,0,1,.32-.29c.14,0,.27.16.4.25a.81.81,0,0,1,0,.16"/><path class="cls-1" d="M84.65,56.48c-.14.09-.29.24-.42.23a.48.48,0,0,1-.3-.33.28.28,0,0,1,.35-.32c.13,0,.25.18.37.27v.15"/><path class="cls-1" d="M90,56.46c-.13.09-.27.26-.4.25a.47.47,0,0,1-.32-.31.28.28,0,0,1,.33-.34c.14,0,.26.16.39.25v.15"/><path class="cls-1" d="M105.84,51a.32.32,0,1,1-.64,0,.32.32,0,1,1,.64,0"/><polygon class="cls-1" points="111.88 51.61 112.03 50.75 112.53 50.75 112.43 51.61 112.78 51.67 112.72 52.07 112.33 52.07 112.1 53.95 111.55 53.95 111.81 52.05 111.53 52.05 111.56 51.6 111.88 51.61"/></g></g></svg>