<?xml version="1.0" encoding="UTF-8" standalone="no"?>
<svg
   xmlns:dc="http://purl.org/dc/elements/1.1/"
   xmlns:cc="http://creativecommons.org/ns#"
   xmlns:rdf="http://www.w3.org/1999/02/22-rdf-syntax-ns#"
   xmlns:svg="http://www.w3.org/2000/svg"
   xmlns="http://www.w3.org/2000/svg"
   xmlns:sodipodi="http://sodipodi.sourceforge.net/DTD/sodipodi-0.dtd"
   xmlns:inkscape="http://www.inkscape.org/namespaces/inkscape"
   viewBox="0 0 122.25 94.07"
   version="1.1"
   id="svg927"
   sodipodi:docname="adaptacion.svg"
   inkscape:version="1.0.2-2 (e86c870879, 2021-01-15)">
  <metadata
     id="metadata931">
    <rdf:RDF>
      <cc:Work
         rdf:about="">
        <dc:format>image/svg+xml</dc:format>
        <dc:type
           rdf:resource="http://purl.org/dc/dcmitype/StillImage" />
      </cc:Work>
    </rdf:RDF>
  </metadata>
  <sodipodi:namedview
     pagecolor="#ffffff"
     bordercolor="#666666"
     borderopacity="1"
     objecttolerance="10"
     gridtolerance="10"
     guidetolerance="10"
     inkscape:pageopacity="0"
     inkscape:pageshadow="2"
     inkscape:window-width="1920"
     inkscape:window-height="1017"
     id="namedview929"
     showgrid="false"
     inkscape:zoom="8.7913256"
     inkscape:cx="56.601046"
     inkscape:cy="70.023093"
     inkscape:window-x="-8"
     inkscape:window-y="-8"
     inkscape:window-maximized="1"
     inkscape:current-layer="Capa_1" />
  <defs
     id="defs885">
    <style
       id="style883">.cls-1{fill:#fff;stroke:#231f20;stroke-miterlimit:10;}</style>
  </defs>
  <g
     id="Layer_2"
     data-name="Layer 2">
    <g
       id="Capa_1"
       data-name="Capa 1">
      <path
         class="cls-1"
         d="M 30.47,93.57 H 0.5 V 20.48 H 30.47 Z M 4,90 H 30.47 V 24 H 4 Z"
         id="path887"
         style="fill:none"
         sodipodi:nodetypes="cccccccccc" />
      <path
         class="cls-1"
         d="M64,93.57H30.47V.5H64ZM34,90H60.43V4H34Z"
         id="path889"
         style="fill:none" />
      <path
         class="cls-1"
         d="M 121.75,93.57 H 64 V 32.05 h 57.75 z M 63.987497,90 H 118.22 V 35.58 H 63.987497 Z"
         id="path891"
         style="fill:none"
         sodipodi:nodetypes="cccccccccc" />
      <path
         class="cls-1"
         d="m 19.268977,41.85 -13.6747667,0 V 29.43 l 13.6747667,0 z M 7.9442103,39.5 l 8.9647667,0 v -7.71 l -8.9647667,0 z"
         id="path893"
         sodipodi:nodetypes="cccccccccc"
         style="fill:none" />
      <path
         class="cls-1"
         d="M 29.037696,41.85 H 20.718977 V 29.43 h 8.318719 z M 23.068977,39.5 h 3.618719 v -7.71 h -3.618719 z"
         id="path895"
         sodipodi:nodetypes="cccccccccc"
         style="fill:none;stroke:#231f20;stroke-opacity:1" />
      <path
         class="cls-1"
         d="M116.4,50.43H66V38H116.4ZM68.3,48.07H114V40.36H68.3Z"
         id="path897"
         style="fill:none" />
      <path
         class="cls-1"
         d="M116.21,66.23H65.76V53.81h50.45ZM68.12,63.88h45.74V56.17H68.12Z"
         id="path899"
         style="fill:none" />
      <path
         class="cls-1"
         d="M116.21,80.82H65.76V68.4h50.45ZM68.12,78.46h45.74V70.75H68.12Z"
         id="path901"
         style="fill:none" />
      <path
         class="cls-1"
         d="m 19.268977,57.29 -13.6747667,0 V 44.86 l 13.6747667,0 z m -11.3247667,-2.36 8.9647667,0 v -7.71 l -8.9647667,0 z"
         id="path903"
         sodipodi:nodetypes="cccccccccc"
         style="fill:none" />
      <path
         class="cls-1"
         d="M 29.037696,57.29 H 20.718977 V 44.86 h 8.318719 z m -5.968719,-2.36 h 3.618719 v -7.71 h -3.618719 z"
         id="path905"
         sodipodi:nodetypes="cccccccccc"
         style="fill:none" />
      <path
         class="cls-1"
         d="M 19.268977,73.65 H 5.5942103 V 61.23 l 13.6747667,0 z m -11.3247667,-2.36 8.9647667,0 v -7.71 l -8.9647667,0 z"
         id="path907"
         sodipodi:nodetypes="cccccccccc"
         style="fill:none" />
      <path
         class="cls-1"
         d="M 29.037696,73.65 H 20.718977 V 61.23 h 8.318719 z m -5.968719,-2.36 h 3.618719 v -7.71 h -3.618719 z"
         id="path909"
         sodipodi:nodetypes="cccccccccc"
         style="fill:none" />
      <path
         class="cls-1"
         d="M57.34,18.81H36.42V9.52H57.34ZM38.78,16.46H55V11.88H38.78Z"
         id="path911"
         style="fill:none" />
      <path
         class="cls-1"
         d="M42.58,35H36.42V21.07h6.16Zm-3.8-2.35h1.45V23.42H38.78Z"
         id="path913"
         style="fill:none" />
      <path
         class="cls-1"
         d="M58.84,35.66H44.25V21.07H58.84ZM46.61,33.3h9.88V23.42H46.61Z"
         id="path915"
         style="fill:none" />
      <path
         class="cls-1"
         d="M57.34,47.3H36.42V38H57.34ZM38.78,45H55V40.36H38.78Z"
         id="path917"
         style="fill:none" />
      <path
         class="cls-1"
         d="M57.34,77.12H36.42V67.83H57.34ZM38.78,74.76H55V70.18H38.78Z"
         id="path919"
         style="fill:none" />
      <path
         class="cls-1"
         d="M42.58,63.48H36.42V49.55h6.16Zm-3.8-2.36h1.45V51.91H38.78Z"
         id="path921"
         style="fill:none" />
      <path
         class="cls-1"
         d="M58.84,64.14H44.25V49.55H58.84ZM46.61,61.79h9.88V51.91H46.61Z"
         id="path923"
         style="fill:none" />
    </g>
  </g>
</svg>
