<svg xmlns="http://www.w3.org/2000/svg" viewBox="0 0 119.8 86.23"><defs><style>.cls-1{fill:#000000;}</style></defs><g id="Layer_2" data-name="Layer 2"><g id="Capa_1" data-name="Capa 1"><path class="cls-1" d="M12.75,39.75.53,27.89A1.73,1.73,0,0,1,2.94,25.4l9.75,9.47,21.92-22.2-8.9-9.45A1.73,1.73,0,1,1,28.22.84l11.2,11.88Z"/><path class="cls-1" d="M108,38.74,79.73,13.34,91,.58a1.74,1.74,0,0,1,2.6,2.3l-9,10.18,23.19,20.87,9-9.33a1.73,1.73,0,0,1,2.45,0,1.74,1.74,0,0,1,0,2.45Z"/><path class="cls-1" d="M21.83,39a1.72,1.72,0,0,1-1.24-.52l-4.52-4.66a1.73,1.73,0,0,1,2.49-2.41l4.52,4.66A1.72,1.72,0,0,1,21.83,39Z"/><path class="cls-1" d="M58.17,85.22a5.36,5.36,0,0,1-3.92-1.72L30.13,59.88a13.62,13.62,0,0,1-1.19-1.33l-4.37-5.63a21.28,21.28,0,0,1-4.47-13v-2.6a1.74,1.74,0,0,1,3.47,0v2.6A17.78,17.78,0,0,0,27.3,50.79l4.38,5.63a10.37,10.37,0,0,0,.88,1L56.73,81.08a1.91,1.91,0,0,0,2.9-2.48L49.65,67a1.73,1.73,0,0,1,2.63-2.25l10,11.64a5.4,5.4,0,0,1-.53,7.52A5.33,5.33,0,0,1,58.17,85.22Z"/><path class="cls-1" d="M70.46,86.23a5.64,5.64,0,0,1-3.85-1.5L58.3,77a1.73,1.73,0,1,1,2.35-2.54L69,82.19a2.21,2.21,0,0,0,3.15-3.09L58.18,63.49a1.73,1.73,0,0,1,2.59-2.3L74.7,76.79a5.66,5.66,0,0,1-4.24,9.44Z"/><path class="cls-1" d="M80.79,83.33a6.26,6.26,0,0,1-4.64-2L60.61,66.2A1.73,1.73,0,0,1,63,63.72l15.6,15.16a2.89,2.89,0,0,0,4.08.25,2.82,2.82,0,0,0,.92-2,2.78,2.78,0,0,0-.75-2.05L65.07,55.72a1.73,1.73,0,0,1,2.55-2.35L85.43,72.76A6.31,6.31,0,0,1,85,81.69,6.29,6.29,0,0,1,80.79,83.33Z"/><path class="cls-1" d="M60.07,27.13a1.76,1.76,0,0,1-.9-.26l-7.35-4.46A12.61,12.61,0,0,0,38,22.74l-1.24.85L31.63,18a1.73,1.73,0,1,1,2.55-2.35l3.14,3.4a16.07,16.07,0,0,1,16.31.36L61,23.91a1.74,1.74,0,0,1-.9,3.22Z"/><path class="cls-1" d="M45.91,48.32A6.36,6.36,0,0,1,44,48a6.27,6.27,0,0,1-1.91-10.94L61.34,22.23A19.12,19.12,0,0,1,77.7,18.78l3.09.77,4.51-4a1.74,1.74,0,0,1,2.3,2.6l-5.88,5.19-4.85-1.2A15.65,15.65,0,0,0,63.46,25L44.2,39.83a2.81,2.81,0,0,0-.87,3.32,2.76,2.76,0,0,0,1.72,1.57,2.79,2.79,0,0,0,2.32-.28l12.51-7.63,1,1.21s3.24,4,6.93,3.76c2.33-.15,4.55-2,6.6-5.36a1.73,1.73,0,0,1,3,1.79c-2.67,4.45-5.83,6.82-9.37,7-3.93.25-7.22-2.35-8.81-3.93l-10,6.09A6.27,6.27,0,0,1,45.91,48.32Z"/><path class="cls-1" d="M85.37,62.57a1.67,1.67,0,0,1-1-.34A1.73,1.73,0,0,1,84,59.82l9.9-13.62a9.4,9.4,0,0,0,1.8-5.53V37.23l6.45-5.86a1.73,1.73,0,0,1,2.33,2.57l-5.32,4.82v1.91a12.82,12.82,0,0,1-2.46,7.57L86.77,61.85A1.73,1.73,0,0,1,85.37,62.57Z"/><path class="cls-1" d="M83.57,73a6,6,0,0,1-4.44-2l-10-10.89a1.73,1.73,0,0,1,2.55-2.34l10,10.88a2.54,2.54,0,0,0,3.55.21,2.57,2.57,0,0,0,.27-3.6L67.73,44.46a1.73,1.73,0,0,1,2.64-2.25L88.15,63A6,6,0,0,1,83.57,73Z"/></g></g></svg>