<svg xmlns="http://www.w3.org/2000/svg" viewBox="0 0 74.93 65.76"><defs><style>.cls-1{fill:#000000;}</style></defs><g id="Layer_2" data-name="Layer 2"><g id="Capa_1" data-name="Capa 1"><path class="cls-1" d="M29.24,65.76H0V64.17A13.42,13.42,0,0,1,13.33,50.51h2.58A13.35,13.35,0,0,1,29.24,63.84Zm-26-3.18H26a10.16,10.16,0,0,0-10.06-8.89H13.33A10.17,10.17,0,0,0,3.26,62.58Z"/><path class="cls-1" d="M14.62,52.11A8.33,8.33,0,1,1,23,43.78,8.34,8.34,0,0,1,14.62,52.11Zm0-13.47a5.15,5.15,0,1,0,5.15,5.14A5.15,5.15,0,0,0,14.62,38.64Z"/><path class="cls-1" d="M74.93,65.76H45.69V64.17A13.42,13.42,0,0,1,59,50.51H61.6A13.35,13.35,0,0,1,74.93,63.84ZM49,62.58H71.67A10.17,10.17,0,0,0,61.6,53.69H59A10.17,10.17,0,0,0,49,62.58Z"/><path class="cls-1" d="M60.31,52.11a8.33,8.33,0,1,1,8.33-8.33A8.34,8.34,0,0,1,60.31,52.11Zm0-13.47a5.15,5.15,0,1,0,5.15,5.14A5.14,5.14,0,0,0,60.31,38.64Z"/><path class="cls-1" d="M52.08,30.31H22.85V28.72A13.42,13.42,0,0,1,36.18,15.06h2.58A13.34,13.34,0,0,1,52.08,28.39Zm-26-3.19H48.82a10.15,10.15,0,0,0-10.06-8.88H36.18A10.16,10.16,0,0,0,26.11,27.12Z"/><path class="cls-1" d="M37.47,16.66A8.33,8.33,0,1,1,45.8,8.33,8.34,8.34,0,0,1,37.47,16.66Zm0-13.48a5.15,5.15,0,1,0,5.14,5.15A5.16,5.16,0,0,0,37.47,3.18Z"/></g></g></svg>