<svg xmlns="http://www.w3.org/2000/svg" viewBox="0 0 109.02 109.02"><defs><style>.cls-1{fill:#000000;}</style></defs><g id="Layer_2" data-name="Layer 2"><g id="Capa_1" data-name="Capa 1"><path class="cls-1" d="M48.33,77.38H28.43V49.91h19.9ZM32.2,73.61H44.56V53.68H32.2Z"/><path class="cls-1" d="M64.46,77.38H44.56V26.47h19.9ZM48.33,73.61H60.69V30.24H48.33Z"/><path class="cls-1" d="M80.59,77.38H60.69V40.59h19.9ZM64.46,73.61H76.82V44.36H64.46Z"/><path class="cls-1" d="M54.45,97.16A42.44,42.44,0,1,1,96.88,54.73,42.49,42.49,0,0,1,54.45,97.16Zm0-81.1A38.67,38.67,0,1,0,93.11,54.73,38.72,38.72,0,0,0,54.45,16.06Z"/><path class="cls-1" d="M86.28,77.38H22.74a1.89,1.89,0,0,1,0-3.77H86.28a1.89,1.89,0,0,1,0,3.77Z"/><path class="cls-1" d="M54.51,20.57a1.89,1.89,0,0,1-1.88-1.89V1.89a1.89,1.89,0,1,1,3.77,0V18.68A1.89,1.89,0,0,1,54.51,20.57Z"/><path class="cls-1" d="M54.51,109a1.89,1.89,0,0,1-1.88-1.89V90.33a1.89,1.89,0,1,1,3.77,0v16.8A1.89,1.89,0,0,1,54.51,109Z"/><path class="cls-1" d="M18.69,60.86H1.89a1.89,1.89,0,1,1,0-3.77h16.8a1.89,1.89,0,0,1,0,3.77Z"/><path class="cls-1" d="M107.14,60.86H90.33a1.89,1.89,0,0,1,0-3.77h16.81a1.89,1.89,0,0,1,0,3.77Z"/></g></g></svg>