<svg xmlns="http://www.w3.org/2000/svg" viewBox="0 0 102.33 100.97"><defs><style>.cls-1{fill:#000000;}</style></defs><title>Autoconocimiento</title><g id="Layer_2" data-name="Layer 2"><g id="Layer_1-2" data-name="Layer 1"><path class="cls-1" d="M34.61,69.22H32.79V58.61a1.82,1.82,0,1,1,3.64,0v6.92A31,31,0,0,0,34.61,3.65c-18,0-30.56,16-31,31a1.82,1.82,0,0,1-1.82,1.77H1.77A1.82,1.82,0,0,1,0,34.57C.46,17.88,14.48,0,34.61,0a34.61,34.61,0,0,1,0,69.21"/><path class="cls-1" d="M34.61,52.09A17.48,17.48,0,1,1,52.08,34.62,17.5,17.5,0,0,1,34.61,52.09m0-31.31A13.84,13.84,0,1,0,48.44,34.62,13.85,13.85,0,0,0,34.61,20.78"/><path class="cls-1" d="M34.61,42.22a7.6,7.6,0,1,1,7.59-7.6,7.62,7.62,0,0,1-7.59,7.6m0-11.56a4,4,0,1,0,4,4,4,4,0,0,0-4-4"/><path class="cls-1" d="M10.33,36.44a1.83,1.83,0,0,1-1.82-1.82A26.09,26.09,0,0,1,47.76,12.08a1.82,1.82,0,1,1-1.85,3.13,23.15,23.15,0,0,0-11.3-3.05A22.49,22.49,0,0,0,12.15,34.62a1.82,1.82,0,0,1-1.82,1.82"/><path class="cls-1" d="M38.72,32.38a1.82,1.82,0,0,1-1.19-3.2l13.4-11.59a1.82,1.82,0,0,1,2.38,2.75l-13.4,11.6a1.85,1.85,0,0,1-1.19.44"/><path class="cls-1" d="M67.36,35.25H59.52a1.82,1.82,0,0,1,0-3.64h7.84a1.82,1.82,0,1,1,0,3.64"/><path class="cls-1" d="M58.62,58.75a1.8,1.8,0,0,1-1.3-.55l-6.5-6.65A1.82,1.82,0,1,1,53.42,49l6.51,6.66a1.82,1.82,0,0,1,0,2.57,1.79,1.79,0,0,1-1.27.52"/><path class="cls-1" d="M65.57,99.68l0-19.08,2.34.68a49.32,49.32,0,0,0,13.32,1.78c4.88-.09,6.36-2,6.72-2.61l-.67-21.69H97.42a1.29,1.29,0,0,0,1.12-.67,1.13,1.13,0,0,0,0-1.18C97.05,54.72,92,46.62,88.76,41.56A25.47,25.47,0,0,1,85.33,33C83.3,22.43,75.1-1.42,42.91,4.6L42.24,1c36.48-6.8,44.92,22.21,46.67,31.26a21.49,21.49,0,0,0,2.93,7.34c3.17,5,8.24,13.09,9.65,15.2a4.8,4.8,0,0,1,.25,5,4.93,4.93,0,0,1-4.32,2.57H91L91.57,81l-.08.27c-.06.22-1.62,5.24-10.23,5.39a52.18,52.18,0,0,1-12.08-1.34l0,14.32Z"/><path class="cls-1" d="M33.66,101l-3.54-.85c1.45-6.08,4.34-23,.32-28.33-3.45-4.55-6.57-9.35-8.57-12.58a24.31,24.31,0,0,1-2.73-6c-6.25-21.42,1.12-28.63,1.44-28.93l2.49,2.66-1.25-1.33,1.27,1.31c-.06.06-6,6.29-.45,25.27A20.07,20.07,0,0,0,25,57.28c1.61,2.6,4.84,7.64,8.38,12.31,5.78,7.62.9,29,.32,31.38"/></g></g></svg>