<svg xmlns="http://www.w3.org/2000/svg" viewBox="0 0 85.51 85.51"><defs><style>.cls-1{fill:#000000;}</style></defs><g id="Layer_2" data-name="Layer 2"><g id="Capa_1" data-name="Capa 1"><path class="cls-1" d="M42.75,85.51A42.76,42.76,0,1,1,85.51,42.75,42.8,42.8,0,0,1,42.75,85.51Zm0-82A39.22,39.22,0,1,0,82,42.75,39.26,39.26,0,0,0,42.75,3.54Z"/><path class="cls-1" d="M26.54,48.59A14.24,14.24,0,1,1,40.77,34.35,14.26,14.26,0,0,1,26.54,48.59Zm0-24.93A10.7,10.7,0,1,0,37.23,34.35,10.7,10.7,0,0,0,26.54,23.66Z"/><path class="cls-1" d="M26.54,65.83a1.77,1.77,0,0,1-1.77-1.77V46.82a1.77,1.77,0,1,1,3.54,0V64.06A1.77,1.77,0,0,1,26.54,65.83Z"/><path class="cls-1" d="M32.77,57.77h-12a1.78,1.78,0,1,1,0-3.55h12a1.78,1.78,0,0,1,0,3.55Z"/><path class="cls-1" d="M54.3,71.57A14.22,14.22,0,0,1,42.64,49.23h0A14.23,14.23,0,1,1,54.3,71.57ZM45.54,51.25a10.71,10.71,0,1,0,6.89-4.42,10.67,10.67,0,0,0-6.89,4.42Z"/><path class="cls-1" d="M61.44,48.88A1.77,1.77,0,0,1,60,46.1l9.84-14.17a1.77,1.77,0,1,1,2.91,2L62.89,48.12A1.74,1.74,0,0,1,61.44,48.88Z"/><path class="cls-1" d="M71.43,43a1.77,1.77,0,0,1-1.77-1.73l-.1-5.66-4.93,2.05a1.77,1.77,0,1,1-1.37-3.26L73,30.31l.21,10.86A1.77,1.77,0,0,1,71.47,43Z"/></g></g></svg>