<svg xmlns="http://www.w3.org/2000/svg" viewBox="0 0 90.03 95.94"><defs><style>.cls-1{fill:#000000;}</style></defs><g id="Layer_2" data-name="Layer 2"><g id="Capa_1" data-name="Capa 1"><path class="cls-1" d="M64.13,95.94H12.78a8.16,8.16,0,0,1-6.86-3.73L0,83.06H53.58l6.3,9.74h4.25a7.37,7.37,0,0,0,7.36-7.36V9.07A9.07,9.07,0,0,1,80.55,0h2V3.14h-2a5.93,5.93,0,0,0-5.92,5.93V85.44A10.51,10.51,0,0,1,64.13,95.94ZM5.77,86.2l2.79,4.3a5,5,0,0,0,4.22,2.3H56.14l-4.27-6.6Z"/><path class="cls-1" d="M22.6,84.63H19.46V8.83A8.84,8.84,0,0,1,28.28,0H85.43l.46.44C86.08.63,90.54,5,90,10.3c-.33,3.07-2.24,5.73-5.68,7.88l-.37.23-10.84.2L73,15.47l10-.19c2.36-1.55,3.66-3.34,3.87-5.3C87.18,7,85,4.2,84.12,3.14H28.28A5.69,5.69,0,0,0,22.6,8.83Z"/><path class="cls-1" d="M62,27.77H30.21a1.57,1.57,0,0,1,0-3.14H62a1.57,1.57,0,0,1,0,3.14Z"/><path class="cls-1" d="M62,35H30.21a1.57,1.57,0,0,1,0-3.14H62A1.57,1.57,0,0,1,62,35Z"/><path class="cls-1" d="M62,42.28H30.21a1.57,1.57,0,0,1,0-3.14H62a1.57,1.57,0,0,1,0,3.14Z"/><path class="cls-1" d="M62,49.54H30.21a1.57,1.57,0,1,1,0-3.14H62a1.57,1.57,0,0,1,0,3.14Z"/><path class="cls-1" d="M62,56.79H30.21a1.57,1.57,0,1,1,0-3.14H62a1.57,1.57,0,0,1,0,3.14Z"/><path class="cls-1" d="M62,64.05H30.21a1.57,1.57,0,0,1,0-3.14H62a1.57,1.57,0,0,1,0,3.14Z"/></g></g></svg>