<svg xmlns="http://www.w3.org/2000/svg" viewBox="0 0 97.36 59.21"><defs><style>.cls-1{fill:#000000;}</style></defs><g id="Layer_2" data-name="Layer 2"><g id="Capa_1" data-name="Capa 1"><path class="cls-1" d="M42.32,44.7H13.17V42.82A13.41,13.41,0,0,1,26.49,29.18H29A13.34,13.34,0,0,1,42.32,42.51ZM17.05,40.94H38.43a9.58,9.58,0,0,0-9.43-8H26.49A9.59,9.59,0,0,0,17.05,40.94Z"/><path class="cls-1" d="M27.74,31.4A8.45,8.45,0,1,1,36.19,23,8.46,8.46,0,0,1,27.74,31.4Zm0-13.13A4.69,4.69,0,1,0,32.43,23,4.69,4.69,0,0,0,27.74,18.27Z"/><path class="cls-1" d="M81.17,21.64H51.33a1.88,1.88,0,1,1,0-3.76H81.17a1.88,1.88,0,0,1,0,3.76Z"/><path class="cls-1" d="M81.17,31.4H51.33a1.88,1.88,0,0,1,0-3.76H81.17a1.88,1.88,0,0,1,0,3.76Z"/><path class="cls-1" d="M81.17,41.15H51.33a1.88,1.88,0,1,1,0-3.76H81.17a1.88,1.88,0,0,1,0,3.76Z"/><path class="cls-1" d="M81.27,59.21H16.09A16.11,16.11,0,0,1,0,43.11v-27A16.11,16.11,0,0,1,16.09,0H81.27A16.11,16.11,0,0,1,97.36,16.09v27A16.11,16.11,0,0,1,81.27,59.21ZM16.09,3.76A12.34,12.34,0,0,0,3.76,16.09v27A12.34,12.34,0,0,0,16.09,55.45H81.27A12.34,12.34,0,0,0,93.6,43.11v-27A12.34,12.34,0,0,0,81.27,3.76Z"/></g></g></svg>