<svg xmlns="http://www.w3.org/2000/svg" viewBox="0 0 97.11 104.53"><defs><style>.cls-1{fill:#000000;}</style></defs><title>ProyectoDeVida</title><g id="Layer_2" data-name="Layer 2"><g id="Layer_1-2" data-name="Layer 1"><path class="cls-1" d="M38.08,104.53a1.68,1.68,0,0,1-1.68-1.68V92.31a2,2,0,0,0-2-2h-17a2,2,0,0,0-2,2v10.54a1.68,1.68,0,0,1-3.36,0V92.31a5.39,5.39,0,0,1,5.4-5.38h17a5.38,5.38,0,0,1,5.38,5.38v10.54a1.68,1.68,0,0,1-1.67,1.68"/><path class="cls-1" d="M34.37,90.28a1.68,1.68,0,0,1-1.68-1.68V72.73L17.33,55.89c-1-.18-2.71-.21-3.41.51-.54.56-.6,1.75-.19,3.37l6.93,7.85a1.68,1.68,0,0,1-2.52,2.21L10.6,61.05c-.88-3.11-.58-5.46.92-7,2.39-2.45,6.62-1.45,7.1-1.33l.49.13L36,71.43V88.6a1.68,1.68,0,0,1-1.67,1.68"/><path class="cls-1" d="M19,88.6H15.69V82.83L0,67.27V34.52l.22-.39c.25-.44,2.58-4.33,6.32-4.46,2.38-.14,4.64,1.38,6.64,4.36l.28.42V57.91H10.11V35.49C9.23,34.28,8,33,6.74,33H6.67c-1.41,0-2.73,1.56-3.32,2.42V65.87L19,81.44Z"/><path class="cls-1" d="M83.46,104.53a1.68,1.68,0,0,1-1.68-1.68V92.31a2,2,0,0,0-2-2h-17a2,2,0,0,0-2,2v10.54a1.68,1.68,0,0,1-3.36,0V92.31a5.39,5.39,0,0,1,5.39-5.38h17a5.39,5.39,0,0,1,5.38,5.38v10.54a1.68,1.68,0,0,1-1.67,1.68"/><path class="cls-1" d="M62.74,90.28a1.68,1.68,0,0,1-1.67-1.68V71.43L78,52.86l.49-.13c.48-.12,4.72-1.12,7.11,1.33,1.48,1.53,1.79,3.88.9,7l-.35.64L79,69.83A1.66,1.66,0,0,1,76.6,70a1.68,1.68,0,0,1-.15-2.36l6.93-7.85c.41-1.63.35-2.82-.19-3.37-.7-.72-2.39-.67-3.41-.51L64.42,72.73V88.6a1.68,1.68,0,0,1-1.68,1.68"/><path class="cls-1" d="M81.42,88.6H78.07V81.44L93.75,65.87V35.45c-.6-.89-1.91-2.39-3.31-2.43-1.24,0-2.55,1.24-3.44,2.47V57.91H83.65V34.45l.28-.42c2-3,4.39-4.38,6.63-4.36,3.75.13,6.07,4,6.32,4.46l.23.39V67.27L81.42,82.83Z"/><path class="cls-1" d="M49.26,58.21l-20.76-13v-22L49.5,12,70.4,24.68V47ZM31.85,43.37l17.55,11L67.05,45V26.57L49.4,15.84,31.85,25.19Z"/><polygon class="cls-1" points="51.01 56.28 47.66 56.27 47.78 34.05 67.99 24.12 69.47 27.13 51.12 36.14 51.01 56.28"/><rect class="cls-1" x="38.14" y="18.56" width="3.35" height="22.15" transform="translate(-5.59 49.69) rotate(-60.49)"/><path class="cls-1" d="M80.76,34.78a1.68,1.68,0,0,1-1.67-1.68,29.76,29.76,0,0,0-59.51,0,1.68,1.68,0,1,1-3.35,0,33.11,33.11,0,0,1,66.21,0,1.68,1.68,0,0,1-1.68,1.68"/></g></g></svg>