<svg xmlns="http://www.w3.org/2000/svg" viewBox="0 0 103.1 101.2"><defs><style>.cls-1{fill:#000000;}</style></defs><g id="Layer_2" data-name="Layer 2"><g id="Capa_1" data-name="Capa 1"><path class="cls-1" d="M69.58,68.2H33.27v-2a16.68,16.68,0,0,1,16.56-17H53A16.59,16.59,0,0,1,69.58,65.78Zm-32.16-4h28A12.54,12.54,0,0,0,53,53.26H49.83A12.53,12.53,0,0,0,37.42,64.16Z"/><path class="cls-1" d="M51.42,51.3A10.37,10.37,0,1,1,61.79,40.93,10.39,10.39,0,0,1,51.42,51.3Zm0-16.69a6.32,6.32,0,1,0,6.33,6.32A6.32,6.32,0,0,0,51.42,34.61Z"/><path class="cls-1" d="M31.36,62.72h-.07C16.18,62.21,0,49.49,0,31.36a31.36,31.36,0,0,1,62.72,0,2,2,0,0,1-4,0,27.31,27.31,0,0,0-54.62,0c0,17.23,15.9,26.93,27.37,27.31a2,2,0,0,1-.06,4Z"/><path class="cls-1" d="M71.74,62.72a2,2,0,0,1,0-4,27.31,27.31,0,1,0,0-54.62c-16.21,0-27.21,14.13-27.31,27.32a2,2,0,0,1-2,2h0a2,2,0,0,1-2-2C40.5,16.21,53.13,0,71.74,0a31.36,31.36,0,0,1,0,62.72Z"/><path class="cls-1" d="M71.74,101.2A31.4,31.4,0,0,1,40.38,69.84a2,2,0,0,1,4,0A27.31,27.31,0,1,0,71.74,42.52a2,2,0,1,1,0-4,31.36,31.36,0,0,1,0,62.72Z"/><path class="cls-1" d="M31.36,101.2a31.36,31.36,0,0,1,0-62.72,2,2,0,0,1,0,4A27.32,27.32,0,1,0,58.67,69.84a2,2,0,0,1,4,0A31.4,31.4,0,0,1,31.36,101.2Z"/></g></g></svg>