<?xml version="1.0" encoding="utf-8"?>
<svg viewBox="311.553 159.934 91.841 80.48" xmlns="http://www.w3.org/2000/svg">
  <g id="Layer_2" data-name="Layer 2" transform="matrix(1, 0, 0, 1, 311.554688, 159.943817)">
    <g id="Capa_1" data-name="Capa 1">
      <path class="cls-1" d="M 58.851 24.06 L 49.971 24.06 C 48.45 23.817 47.763 22.02 48.733 20.824 C 49.044 20.442 49.484 20.188 49.971 20.11 L 58.851 20.11 C 60.371 19.867 61.584 21.361 61.034 22.799 C 60.696 23.683 59.785 24.209 58.851 24.06 Z M 41.141 24.06 L 32.261 24.06 C 30.74 23.817 30.053 22.02 31.023 20.824 C 31.334 20.442 31.774 20.188 32.261 20.11 L 41.121 20.11 C 42.641 20.353 43.329 22.15 42.358 23.346 C 42.048 23.728 41.607 23.982 41.121 24.06 Z" style="fill: #000000"/>
      <path class="cls-1" d="M 77.1 48.277 C 75.995 48.277 75.1 47.473 75.1 46.479 L 75.1 34.434 C 74.857 33.067 76.351 31.977 77.789 32.471 C 78.673 32.775 79.199 33.594 79.05 34.434 L 79.05 46.506 C 79.034 47.472 78.173 48.254 77.1 48.277 Z" style="fill: #000000"/>
      <path class="cls-1" d="M 31.8 75 C 30.26 75 29.298 73.333 30.068 72 C 30.425 71.381 31.085 71 31.8 71 L 41.8 71 C 43.34 71 44.302 72.667 43.532 74 C 43.175 74.619 42.515 75 41.8 75 L 31.8 75 Z M 50.063 74.94 C 48.547 74.674 47.887 72.867 48.875 71.686 C 49.178 71.324 49.599 71.081 50.063 71 L 60.063 71 C 61.603 71 62.565 72.667 61.796 74 C 61.438 74.619 60.778 75 60.063 75 L 50.063 75 L 50.063 74.94 Z" style="fill: #000000"/>
      <path class="cls-1" d="M 16.52 48.376 C 15.415 48.376 14.52 47.571 14.52 46.578 L 14.52 34.479 C 14.277 33.112 15.771 32.022 17.209 32.516 C 18.093 32.82 18.619 33.639 18.47 34.479 L 18.47 46.596 C 18.46 47.565 17.597 48.353 16.52 48.376 Z" style="fill: #000000"/>
      <path class="cls-1" d="M29.59,30.64H0v-2A13.62,13.62,0,0,1,13.53,14.82h2.54A13.54,13.54,0,0,1,29.59,28.35ZM4.09,26.7H25.5a9.6,9.6,0,0,0-9.43-7.93H13.53A9.6,9.6,0,0,0,4.09,26.7Z" style="fill: #000000"/>
      <path class="cls-1" d="M14.8,17.21a8.61,8.61,0,1,1,8.6-8.6A8.61,8.61,0,0,1,14.8,17.21ZM14.8,4a4.66,4.66,0,1,0,4.65,4.66A4.66,4.66,0,0,0,14.8,4Z" style="fill: #000000"/>
      <path class="cls-1" d="M91.84,30.64H62.24v-2A13.62,13.62,0,0,1,75.77,14.82h2.54A13.55,13.55,0,0,1,91.84,28.35ZM66.33,26.7H87.74a9.58,9.58,0,0,0-9.43-7.93H75.77A9.6,9.6,0,0,0,66.33,26.7Z" style="fill: #000000"/>
      <path class="cls-1" d="M77,17.21a8.61,8.61,0,1,1,8.6-8.6A8.61,8.61,0,0,1,77,17.21ZM77,4a4.66,4.66,0,1,0,4.65,4.66A4.66,4.66,0,0,0,77,4Z" style="fill: #000000"/>
      <path class="cls-1" d="M91.84,80.47H62.24v-2A13.62,13.62,0,0,1,75.77,64.65h2.54A13.55,13.55,0,0,1,91.84,78.18Zm-25.51-4H87.74a9.58,9.58,0,0,0-9.43-7.93H75.77A9.6,9.6,0,0,0,66.33,76.52Z" style="fill: #000000"/>
      <path class="cls-1" d="M77,67a8.61,8.61,0,1,1,8.6-8.6A8.61,8.61,0,0,1,77,67Zm0-13.26a4.66,4.66,0,1,0,4.65,4.66A4.66,4.66,0,0,0,77,53.77Z" style="fill: #000000"/>
      <path class="cls-1" d="M29.59,80.47H0v-2A13.62,13.62,0,0,1,13.53,64.65h2.54A13.54,13.54,0,0,1,29.59,78.18Zm-25.5-4H25.5a9.6,9.6,0,0,0-9.43-7.93H13.53A9.6,9.6,0,0,0,4.09,76.52Z" style="fill: #000000"/>
      <path class="cls-1" d="M14.8,67a8.61,8.61,0,1,1,8.6-8.6A8.61,8.61,0,0,1,14.8,67Zm0-13.26a4.66,4.66,0,1,0,4.65,4.66A4.66,4.66,0,0,0,14.8,53.77Z" style="fill: #000000"/>
    </g>
  </g>
</svg>